<svg xmlns="http://www.w3.org/2000/svg" version="1.1" width="600px" height="600px" viewBox="0 0 200 200" style="overflow:hidden!important;"><g id="svga-group-wrapper"><g id="svga-group-backs-single"></g><g id="svga-group-humanwrap-move" transform="matrix(1,0,0,1,0,-6)"><g id="svga-group-humanwrap"><g id="svga-group-hair-back-move" transform="matrix(1,0,0,1,0,0)"><g id="svga-group-hair-back" transform="matrix(0.9999999,0,0,0.9999999,0,0)"></g></g><g id="svga-group-humanbody-back"><path id="SvgjsPath5501" d="M180.8 184.9c-2.3-3.4-38.9-17.8-38.9-17.8l-13.4-5.2-5.6-68.8H76.8L71.3 162l-13.4 5.2S21.4 181.6 19 185c-2.3 3.4-3.3 14.9-3.3 14.9V219h168.5v-19.2c-.1.1-1-11.5-3.4-14.9z" fill="#9f6d56" stroke-width="none" opacity="1" stroke="none"></path></g><g id="svga-group-chinshadow-single"><path id="SvgjsPath5636" d="M73.4 148.4c11.3 14.1 20.9 13.8 20.9 13.8s9.6.3 20.9-13.9c4.4-5.5 8-11.5 10.8-17.1l-3.1-38.1H76.8l-4.3 54.2c.3.3.6.7.9 1.1z" fill="#80462c" stroke-width="none" opacity="1" stroke="none"></path></g><g id="svga-group-humanbody-front"><path id="SvgjsPath5502" d="M184.5 219c-.1-6.4-.1-12.8-.1-19.2l-.3-.1s.1-.1.2 0c.1 0 .1.1.1.1v-.4l-.1-.5-.1-.9-.2-1.9c-.2-1.3-.4-2.5-.6-3.8-.2-1.3-.5-2.5-.9-3.8-.4-1.2-.8-2.5-1.5-3.6-.8-.9-1.9-1.5-2.9-2.1-1-.6-2.1-1.1-3.2-1.7-2.1-1.1-4.3-2.1-6.5-3.1-4.4-2-8.7-3.9-13.1-5.7-4.4-1.9-8.8-3.7-13.2-5.5l-13-5.2-1.2-16.9c-.4-5.7-.9-11.5-1.3-17.2l-1.3-17.2-1.5-17.3-.1-.8h-.8c-7.7 0-15.4.1-23.1.1l-23.1.2h-.5v.5L75 110.2l-1.3 17.2c-.8 11.4-1.8 22.8-2.8 34.2-5.6 2.1-11.2 4.2-16.7 6.4-5.6 2.2-11.2 4.5-16.8 6.9-2.8 1.2-5.6 2.4-8.3 3.6-2.8 1.3-5.5 2.5-8.2 4.1-.7.4-1.3.8-2 1.4-.2.1-.4.4-.5.6l-.3.6c-.2.4-.4.7-.5 1.1-.6 1.5-1 3-1.3 4.5-.6 3-1.1 6-1.4 9.1l-.1 19.1v.9h.9l42.1.1H100c14 0 28.1-.1 42.1-.2l42.1-.5h.3v-.3zm-84.5-1-42.1-.1-41.2.1-.1-18.1c.3-3 .6-5.9 1.2-8.9.3-1.4.6-2.9 1.1-4.2.1-.3.3-.7.4-.9l.2-.4.3-.3c.5-.4 1.1-.8 1.8-1.2 2.5-1.5 5.3-2.8 8-4.1 2.7-1.3 5.5-2.5 8.2-3.7 5.5-2.4 11.1-4.8 16.7-7.1s11.2-4.5 16.9-6.7l.2-.1v-.2c.9-11.5 1.7-23 2.7-34.4l1.4-17.2 1.5-16.7 22.6.2c7.4.1 14.8.1 22.3.1l1.3 16.4 1.5 17.2c.5 5.7 1 11.5 1.5 17.2l1.6 17.2v.3l.3.1 13.4 5c4.4 1.7 8.9 3.4 13.3 5.2 4.4 1.8 8.8 3.7 13.2 5.6 2.2 1 4.3 2 6.5 3 1.1.5 2.1 1.1 3.2 1.6 1 .6 2.1 1.2 2.9 2 .7 1.1 1.1 2.3 1.4 3.5.3 1.2.6 2.5.8 3.7.2 1.3.4 2.5.6 3.8l.2 1.9.1.9.1.5v.4c0 6.3 0 12.6-.1 18.9l-41.8-.5c-14 .1-28.1 0-42.1 0z" fill="#71361b" stroke-width="none" opacity="1" stroke="none"></path><path id="SvgjsPath5503" d="M125.1 142.4s-1.8 23-9.1 32.9c0 0 7.9-25 9.1-32.9zm-34.5 16s5 7.9 11.5 10.1c0 0-9.5 2.2-11.5-10.1zM73.4 140c6.7 25.6 6.7 25.6 8.5 30.7 0 0 .4-12.6-8.5-30.7z" fill="#80462c" stroke-width="none" opacity="1" stroke="none"></path></g><g id="svga-group-clothes-single"><path id="SvgjsPath9328" d="M10.9 220c0-15.2 1.2-32.2 2.3-34.1 1-1.9 5-3.3 5-3.3s3.5-2.9 7.1-4.8c3.5-1.9 15.7-3.9 15.7-3.9s0-1 .4-1.9 1.9-1.2 5-5.2 2.1-4.8 2.7-6.7c.6-1.9 4.4-1.5 4.4-1.5s.4-6 4.8-10c4.4-3.9 13.6-6.6 13.6-6.6s-.1 6.9-.1 11.3-1.3 4.6 5.1 12.6c6.5 7.9 12.4 15.1 15.4 17 3.1 1.9 7.2 4 9.1 9.5 0 0 1.7-4.4 3.7-5.9s6.2-6 7.9-7.7c1.7-1.7 5.3-8.1 7.5-9.5 2.2-1.5 7.4-6.5 8.3-7.9s-.9-21.7-.9-21.7 6.9 3.7 9.4 5.4c2.5 1.7 4.9 9.5 4.9 9.5s2.4 2.1 5.1 4.1 4.7 2.9 6.2 5.7c1.5 2.8.8 5.3 1.4 6.5.6 1.1 1.2 2 1.6 2.6 0 0 17.1 5.1 20 6.4s5.7 4 5.7 4 3.1 1.9 3.9 9.8 1.8 26.4 1.8 26.4l-177-.1z" fill="#218b21" stroke-width="none" opacity="1" stroke="none"></path><path id="SvgjsPath9329" d="m188.6 219.9-1.2-18.6c-.2-3.1-.4-6.2-.9-9.3-.2-1.6-.6-3.2-1.2-4.7-.3-.8-.7-1.5-1.1-2.2-.2-.4-.5-.7-.8-1-.3-.3-.5-.6-.9-.9-1.5-1.4-3.1-2.6-4.9-3.6-.9-.5-1.9-.9-2.8-1.2l-2.8-1.1-15.3-4.3c-.5-.8-1.1-1.6-1.4-2.4-.1-.3-.2-.8-.2-1.3s-.1-1-.1-1.6c-.2-2.2-1.2-4.3-2.7-5.9-1.6-1.6-3.4-2.6-5.1-3.8-1.6-1.1-3.2-2.4-4.7-3.7-.6-1.7-1.2-3.3-1.9-4.9-.4-.8-.8-1.6-1.3-2.4-.5-.8-1-1.6-1.9-2.2-1.5-1-3.1-1.9-4.7-2.8-1.6-.9-3.2-1.7-4.8-2.6l-.7-.4s.7 11.7 1 17.3c0 1.4.4 3 .3 4.3 0 .2 0 .3-.1.5 0 .1 0 .1-.1.2l-.1.2c-.2.3-.4.5-.6.8-.4.5-.9 1-1.4 1.5-2 2-4 3.9-6.2 5.6-1.1.9-2 2.1-2.8 3.2-.8 1.1-1.6 2.3-2.4 3.4-.4.6-.8 1.1-1.2 1.7-.4.6-.8 1.1-1.4 1.5-1.1.8-3.5 4.2-6.3 6.5-.6.4-1.2.7-1.8 1.3-.5.5-.9 1.1-1.3 1.7-.6.9-1.1 1.8-1.5 2.8-.9-2.2-2.5-4.3-4.4-5.8-1.1-.9-2.2-1.6-3.4-2.4-1.2-.7-2.1-1.7-3.2-2.5-4.4-4-4.4-6-8.3-9.7-1.9-1.9-3.6-4.1-5.2-6.2-.8-1.1-1.7-2.1-2.4-3.2-.8-1.1-1.4-2.2-1.8-3.4-.4-1.1-.2-2.4-.1-3.8l.1-4.1.1-8.1v-1.2l-1.2.3c-2.2.6-4.3 1.4-6.3 2.3-2.1.9-4.1 1.9-6 3.2-1.9 1.3-3.6 3.1-4.6 5.2-1 1.8-1.6 3.8-1.9 5.8-.7 0-1.4.1-2.2.2-.5.1-1 .3-1.5.7-.2.2-.5.5-.6.8-.2.3-.2.6-.3.8-.1.5-.2 1-.2 1.4 0 .4-.1.8-.2 1.1-.2.7-.7 1.5-1.1 2.2-1 1.4-2.1 2.8-3.3 4-.6.6-1.2 1.1-2 1.8-.2.2-.4.4-.6.7-.2.3-.2.5-.3.8-.1.3-.2.6-.2 1-1.5.4-7.5.9-9 1.4-1.6.6-3.2 1.1-4.8 1.8-1.6.7-3.1 1.6-4.5 2.6-1.4.9-2.7 1.9-4 3-1.6.7-3.1 1.4-4.4 2.6-.3.3-.6.7-.9 1.2-.2.5-.2.9-.3 1.3-.2.9-.3 1.7-.4 2.5-.4 3.4-.6 6.7-.8 10.1-.2 3.4-.3 6.7-.3 10.1 0 1.7-.1 3.4-.1 5 0 1.7 0 3.3.1 5.1l43.9.4 44.2.3c14.7.1 29.5.1 44.3.2 14.8 0 29.6.1 44.4 0h1.1l-.1-1.1zm-85-30.9c.4-.6.8-1.1 1.2-1.6.4-.5 1-.8 1.6-1.2 2.4-1.4 3.4-4.9 12.8-9.5 3.2-1.6 6-3.6 8.7-5.7 1.4-1.1 2.7-2.2 4-3.3.6-.6 1.3-1.2 1.8-2s.9-1.6 1.3-2.4c.7-1.7 1.1-3.4 1.2-5.2 0-.4 0-.9-.1-1.4-.1-.4-.2-.9-.4-1.3-.3-.8-.7-1.6-1.2-2.3.3.8.5 1.6.7 2.5.1.8.2 1.6 0 2.4-.3 1.6-.9 3.2-1.7 4.6-.4.7-.8 1.4-1.3 2-.5.6-1.1 1.1-1.7 1.7-1.3 1.1-2.6 2.1-3.9 3.2-1.3 1.1-2.7 2.1-4.1 3.1l-2.1 1.5c-.7.5-1.4.9-2.1 1.4-1.5.9-2.9 1.9-4.4 2.9.1-.1.1-.2.2-.2.4-.6.8-1.1 1.2-1.7.8-1.1 1.6-2.3 2.4-3.4.8-1.1 1.7-2.3 2.7-3.1 2.3-1.6 4.3-3.6 6.3-5.6l1.5-1.5c.2-.3.5-.5.7-.8 0 0 2-2.5 2.4-3.6.5-1.3.8-2.7.7-4.2-.2-1.4-.9-5.1-1.6-6.4-.5-1.1-2-4.9-2.2-7.2 1.4.8 2.7 1.5 4.1 2.3 1.6.9 3.1 1.8 4.6 2.8.6.4 1.1 1.2 1.6 1.9.4.8.8 1.5 1.2 2.4.7 1.6 1.3 3.3 1.9 5l.1.1.1.1c.1 0 .1.1.1.1v.1c0 1.1-.1 2.3-.3 3.4-.3 2.2-1 4.4-1.8 6.5-1.5 4.2-3.9 8.1-7.5 10.4-.9.6-1.8 1.1-2.9 1.7l-3 1.8-5.8 3.6c-1 .6-1.9 1.1-2.9 1.6-.5.2-1 .5-1.5.6-.5.2-1.1.3-1.6.4-2.2.6-4.4 1.2-6.6 1.9 2.3-.3 4.6-.6 6.8-.9.6-.1 1.1-.1 1.7-.3.6-.1 1.2-.3 1.7-.6 1.1-.4 2.1-1 3.2-1.5 2.1-1.1 4-2.3 6-3.4 1-.6 2-1.1 3-1.7 1-.5 2.1-1.1 3-1.8 2-1.4 3.7-3.1 5-5.1 1.3-2 2.2-4.2 2.9-6.5.7-2.2 1.1-4.5 1.2-6.9 0-1 0-2.1-.1-3.1 1.3 1.2 2.7 2.3 4.1 3.3 1.7 1.2 3.5 2.2 4.8 3.6 1.3 1.4 2.1 3.2 2.3 5.2.1.5.1 1 .1 1.5s0 1 .3 1.7c-.8.9-1.6 1.9-2.3 2.8-.9 1.2-1.9 2.3-2.8 3.4-1.9 2.1-4.2 4.2-6.1 6.6 1.5-.6 2.8-1.4 4.1-2.2 1.3-.9 2.5-1.9 3.5-3 1.1-1.2 1.9-2.5 2.6-3.9.5-1 1-2 1.3-3.1.4.8.9 1.6 1.4 2.2l.1.2h.1c-1.5 2.2-3 4.4-4.7 6.6-1.8 2.3-3.7 4.6-5.9 6.4-2.3 1.8-4.8 3.2-7.5 4.3-2.7 1.1-5.4 2.1-8.2 2.9-2.8.8-5.7 1.3-8.6 1.8-2.9.5-5.7 1.2-8.6 1.6-3.4.6-4.8.5-5.1.5 0-1.1-.1-2.1-.3-2.8.6-.3 1.4-.9.1-1.4-1.6-.5-3.1.2-3.1.9-.1.6.5.7 1.1.7.2.6.2 1.3.2 2.1-.3-.1-.6-.3-.8-.5-.5-.4-.9-.8-1.3-1.3-.3-.5-.7-1.1-.8-1.6l-.6-2.1c.6-.9 1.1-2 1.8-3zm-61.9-14.6v-.6c0-.3.1-.8.2-1.1 0-.2.1-.4.2-.4 0-.1.1-.2.3-.3.6-.5 1.4-1.1 2-1.8 1.3-1.3 2.5-2.7 3.5-4.2.5-.8 1-1.6 1.3-2.6.3-1 .3-2 .5-2.7 0-1.1 1.6-1.3 3.1-1.3 0 .6.1 1.1.1 1.7.4 3.3 1.5 6.6 3.1 9.6 1.7 2.9 3.9 5.6 6.5 7.6 2.6 2.1 5.6 3.7 8.7 4.7-2.8-1.8-5.4-3.7-7.7-5.9s-4.3-4.7-5.8-7.4c-.8-1.4-1.4-2.8-2-4.3-.6-1.5-1-3-1.3-4.5-.1-.5-.2-1.1-.3-1.6l.1-.6c.2-2 .9-4.1 1.9-5.9 1-1.9 2.4-3.4 4.1-4.6 1.7-1.2 3.7-2.1 5.7-3 1.6-.7 3.3-1.3 5-1.9 0 0-1.7 4.2-2.2 5.1-.7 1.1-1 2.6-.7 3.9.1.7.3 1.3.6 1.8.2.6.5 1.1.8 1.6.4.7 3 5.6 3.8 6.8.8 1.1 1.7 2.2 2.5 3.3 1.7 2.1 3.6 4.9 5.6 6.8 4.1 4 3.8 6.3 8.3 9.4 1.1.8 2.3 1.5 3.5 2.2 1.2.7 2.3 1.4 3.3 2.2 2.1 1.6 3.7 3.8 4.6 6.3l.1.3-.4 1.1c-.2.6-.5 1.3-.9 1.8-.4.6-.8 1-1.2 1.1-.1 0-.2.1-.4.1h-1.3c0-.1.1-.2.1-.3.3-.6.6-1.2.8-1.5.4.1.9 0 1-.3.2-.5-.6-2.1-1.6-2-.9 0-1.3.3-.5 1.4-.6.6-1.3 1.5-1.8 2.8h-.6c-3.1-.1-6.1-.4-9.2-.7-3.1-.4-6.1-.7-9-1.5-2.9-.8-15.6-7.5-21.2-10-2.8-1.2-5.7-2.4-8.3-4.1-1.3-.9-2.5-1.8-3.5-3-.8-.9-1.6-2.1-1.9-3.3l.5-.2zm102 44.6c-14.7 0-29.3.1-44 .2l-44.2.3-44.5.4c.1-1.6.1-3.3.2-5l.2-5c.1-3.4.3-6.7.6-10.1.2-3.3.6-6.7 1-10 .1-.8.2-1.6.4-2.4.1-.4.2-.8.3-1.1.1-.3.4-.6.6-.8 1.1-1 2.7-1.8 4.2-2.4h.1l.1-.1c1.3-1 2.7-2 4.1-2.9 1.4-.9 2.8-1.8 4.3-2.4 3-1.3 10.9-2.2 14.1-3.1.3 1.3 1 2.4 1.8 3.5 1 1.2 2.2 2.3 3.4 3.2 2.5 1.9 5.4 3.2 8.2 4.5 5.6 2.7 18.2 9.9 21.2 10.8 1.5.4 3.1.8 4.6 1s3.1.5 4.6.7c3.1.4 6.2.6 9.3.8h.2v.1c-.3 2.9 1.6 8.7 2 12.1s-1 6.8-.3 7 2.5.9 2.8-.2c.3-1.1.6-10.9-.9-13.9-.9-1.8-1.3-3.6-1.3-5.1H98.5c.2 0 .5-.1.8-.1 1.1-.3 1.8-1.2 2.3-1.9.1-.1.1-.2.2-.3 0 .1.1.1.1.2.5.7 1.1 1.3 1.8 1.8.6.4 1.2.7 1.8.9-.1.5-.1.9-.2 1.3-.4 1.9-2 3.1-1.2 7.2s3.1 6.1 3.4 7.7c.3 1.6.4 2.9 1 2.9s2.4-.7 2.7-1.6-.8-3.5-2.3-5.4c-1.5-1.9-2.8-4.6-2.8-6.1 0-1.3.9-3.7 1.3-5.7 6.7-.6 11.3-1.8 14.2-2.3s5.8-1.2 8.6-2c2.9-.9 5.6-1.9 8.3-3.2 2.7-1.3 5.3-2.8 7.6-4.8 2.2-2 4.1-4.4 5.8-6.8 1.6-2.2 3-4.5 4.3-6.9h.1l15.4 4.5 2.7 1.1c.9.4 1.8.8 2.6 1.2 1.6.9 3.2 2.1 4.6 3.4l.1.1.6.6.6.9c.4.6.7 1.3.9 1.9.5 1.4.9 2.8 1.1 4.3.4 3 .6 6.1.8 9.2.4 5.8.7 11.7 1.1 17.5-14.5.2-28.8.2-43.1.3zM32.8 203.3c-.3-1.8-1-3.3-1.7-4.7-1.5-2.9-3.2-5.6-5.1-8.2-1-1.3-1.9-2.6-3.1-3.7-1.2-1.1-2.5-2.1-4.1-2.6 1.4.8 2.5 2 3.4 3.2.9 1.2 1.7 2.6 2.6 3.9 1.6 2.7 3.2 5.4 4.6 8.2.7 1.4 1.4 2.8 1.6 4.1.3 1.5.4 3.1.6 4.6.3 3.1.6 6.3 1.1 9.5.4-3.2.5-6.4.4-9.6 0-1.4-.1-3-.3-4.7zm142.4-17.5c-.9.2-1.8.7-2.4 1.4-.6.7-1.1 1.5-1.5 2.2-1.8 2.8-3.6 5.7-5.2 8.7-.4.8-.7 1.6-1.1 2.4-.2.4-.3.8-.4 1.3-.1.4-.2.9-.3 1.3-.2 1.7-.4 3.4-.4 5.1-.1 3.4-.1 6.8.1 10.1.6-3.3 1-6.7 1.5-10 .2-1.6.4-3.3.7-4.9.3-1.5 1-3 1.7-4.4 1.5-3 3.2-5.8 4.7-8.9.4-.8.7-1.5 1.1-2.1.4-.6 1-1 1.7-1.3.7-.3 1.6-.4 2.4-.8.8-.3 1.6-.8 2.2-1.3-.8.4-1.6.6-2.4.8-.7.2-1.5.2-2.4.4z" fill="#046c04" stroke-width="none" opacity="1" stroke="none"></path><path id="SvgjsPath9330" d="M173.1 180.5c-3.5-1.5-13.8-3-16.4-4.8 0 0 11.8 6.1 15.9 7.4 4.1 1.3 7.2.9 7.2.9s-3.2-2-6.7-3.5zm-32.6-24.6c0-3.2-2.4-7.4-4.1-9.5s-5.4-3.2-6.9-4.3c0 0 .9.9 2.6 2.8 1.7 1.9 5 6.7 5.6 10.6.6 3.9-2.6 11.3-4.8 14.1s-10.8 7.2-14.8 9.5c-3.9 2.4-7.5 5.6-12.1 8.2s-3 6.9-3 6.9.7-2.6 2.2-4.6 7.3-6.1 11.6-7.4c4.3-1.3 14.3-7.4 18.2-11.1 3.9-3.4 5.5-11.9 5.5-15.2zm3.2 2.2s1.9 3 3.2 4.8c1.3 1.7 2.4 5.9-1.5 12.4s-15 13.2-15 13.2 9.5-4.3 12.6-6.5c3-2.2 8.9-9.5 9.3-11.3.4-1.7-.2-4.8-1.5-6.9-1.2-2.2-6.2-4.8-7.1-5.7zm-59.3 22.6c-3.9-3-11.4-13.2-14.4-17.1-3-3.9-3.2-8-3.5-10.8 0 0-2.4 2.6-2.8 4.8s-.4 5.9 3.2 8.9c3.7 3 17.5 18 22.7 20.4 5.2 2.4 9.3 5.9 9.3 5.9s-1.1-2.6-2.4-3.9c-1.3-1.5-8.2-5.2-12.1-8.2zM60 185.4c3.9 1.5 14.5 6.3 17.3 7.4s15.1 3 15.1 3-11.8-3.9-15.8-5.6c-3.8-1.7-16.6-4.8-16.6-4.8z" fill="#349a34" stroke-width="none" opacity="1" stroke="none"></path></g><g id="svga-group-head" transform="matrix(1,0,0,1,0,0)"><g id="svga-group-ears-left-move" transform="matrix(1,0,0,1,0,0)"><g id="svga-group-ears-left"><path id="SvgjsPath5401" d="M68.53 80.36s-11.15-9.8-12.94-9.96c-1.54-.14-5.36 8.01-7.05 13.16-.45 1.36-.34 2.88.25 4.2 1.62 3.57 5.21 11.04 8.43 14.78 0 0 2.72.59 3.58.33.86-.25 7.58-5.67 8.27-7.77s.83-11.3-.54-14.74z" fill="#9f6d56" stroke-width="none" opacity="1" stroke="none"></path><path id="SvgjsPath5402" d="M69.49 84.19c.18 1.31.28 2.64.33 3.96.05 1.32.06 2.65-.01 3.98a26.7 26.7 0 0 1-.17 1.99c-.05.34-.1.67-.2 1.02s-.28.7-.46.96c-.72 1.11-1.6 1.95-2.47 2.8-.88.84-1.78 1.63-2.71 2.4-.47.38-.93.75-1.42 1.11-.24.18-.49.35-.74.52l-.4.24c-.16.08-.35.17-.53.19-.67.08-1.23-.01-1.82-.09-.58-.08-1.15-.19-1.73-.32l-.13-.03-.08-.1c-1.45-1.74-2.63-3.68-3.74-5.65-1.1-1.98-2.1-4.03-3.06-6.1l-1.41-3.11c-.5-1.05-.71-2.29-.54-3.46.06-.59.26-1.14.44-1.67.18-.54.37-1.07.56-1.6.4-1.05.79-2.11 1.22-3.15.86-2.07 1.76-4.13 2.94-6.02.3-.47.62-.93 1-1.36.19-.21.4-.42.67-.59.13-.08.3-.16.52-.16.19.01.32.07.47.12 1.06.47 1.87 1.14 2.75 1.76 1.72 1.29 3.37 2.66 5 4.09 1.64 1.41 3.22 2.86 4.81 4.38.49 1.27.72 2.58.91 3.89zM58.4 72.51c-.85-.59-1.75-1.26-2.59-1.61-.09-.02-.2-.08-.26-.08-.04 0-.12.02-.2.07-.17.1-.35.25-.51.44-.34.36-.65.8-.94 1.24-1.16 1.8-2.18 3.77-3.11 5.77-.46 1.01-.92 2.02-1.32 3.06-.2.52-.4 1.04-.59 1.57-.19.53-.38 1.05-.45 1.6-.15 1.11.06 2.27.55 3.26.47 1.03.98 2.05 1.49 3.05 1.02 2.02 2.12 3.99 3.26 5.91 1.15 1.91 2.36 3.79 3.76 5.42l-.21-.13c1.09.2 2.3.43 3.29.33.11-.01.18-.06.28-.11l.35-.22.7-.5c.47-.34.93-.71 1.39-1.08.92-.74 1.81-1.52 2.68-2.34.85-.82 1.73-1.66 2.39-2.61.17-.25.29-.46.38-.72.08-.27.14-.58.19-.89.09-.63.17-1.27.21-1.91.1-1.29.14-2.6.15-3.9.01-1.31-.04-2.62-.15-3.92-.11-1.3-.27-2.62-.66-3.84-3.33-2.62-6.67-5.35-10.08-7.86z" fill="#90593f" stroke-width="none" opacity="1" stroke="none"></path><path id="SvgjsPath5403" d="M68.79 88.66S58.04 75.08 56.02 76.21c-2.01 1.12-5.19 7.53-5.18 9.67.02 3.14 3.34 8.38 5.01 9.96s3.68 2.55 6.35 1.94c2.66-.61 6.59-9.12 6.59-9.12z" fill="#90593f" stroke-width="none" opacity="1" stroke="none"></path><path id="SvgjsPath5404" d="M60.61 88.64c-.45-1.26-.95-2.5-1.45-3.74a49.61 49.61 0 0 0-1.66-3.64c-.61-1.18-1.22-2.36-1.97-3.45l-.08-.12-.08.12c-.75 1.18-1.45 2.38-2.12 3.62-.33.62-.66 1.25-.96 1.89-.31.64-.57 1.31-.84 1.98l-.04.1.04.12c.46 1.41.96 2.79 1.47 4.18.25.69.54 1.37.83 2.05.3.68.59 1.35.99 2.01l.19.31.25-.23c.34-.31.6-.65.87-1.02.26-.37.49-.76.69-1.17.4-.82.63-1.78.6-2.74v-.06l-.02-.04c-.5-.99-1.03-1.96-1.55-2.94l-.05.03c.42 1.01.83 2.03 1.26 3.03-.04.86-.3 1.68-.68 2.41-.33.62-.77 1.17-1.24 1.65-.26-.49-.5-1.02-.73-1.56l-.81-2.03c-.53-1.32-1.03-2.66-1.52-3.99.45-1.3.94-2.59 1.52-3.82.57-1.23 1.22-2.41 1.96-3.51.67 1.04 1.17 2.23 1.68 3.39l1.54 3.67 1.56 3.67c.52 1.22 1.05 2.45 1.6 3.66l.06-.03c-.41-1.27-.85-2.54-1.31-3.8z" fill="#71361b" stroke-width="none" opacity="1" stroke="none"></path></g></g><g id="svga-group-ears-right-move" transform="matrix(1,0,0,1,0,0)"><g id="svga-group-ears-right"><path id="SvgjsPath5405" d="M131.47 80.36s11.15-9.8 12.94-9.96c1.54-.14 5.36 8.01 7.05 13.16.45 1.36.34 2.88-.25 4.2-1.62 3.57-5.21 11.04-8.43 14.78 0 0-2.72.59-3.58.33-.86-.25-7.58-5.67-8.27-7.77s-.83-11.3.54-14.74z" fill="#9f6d56" stroke-width="none" opacity="1" stroke="none"></path><path id="SvgjsPath5406" d="M131.44 80.33c1.58-1.52 3.17-2.97 4.81-4.38 1.62-1.42 3.28-2.8 5-4.09.88-.63 1.69-1.29 2.75-1.76.16-.04.28-.11.47-.12.21 0 .38.08.52.16.28.17.49.37.67.59.38.43.7.89 1 1.36 1.18 1.89 2.07 3.96 2.94 6.02.43 1.04.82 2.09 1.22 3.15.19.53.38 1.06.56 1.6.18.53.37 1.08.44 1.67.17 1.17-.04 2.41-.54 3.46l-1.41 3.11c-.97 2.06-1.96 4.11-3.06 6.1-1.11 1.98-2.29 3.92-3.74 5.65l-.08.1-.13.03c-.58.13-1.15.23-1.73.32-.59.07-1.16.16-1.82.09-.18-.02-.37-.11-.53-.19l-.4-.24c-.25-.17-.5-.34-.74-.52-.48-.36-.95-.73-1.42-1.11-.93-.76-1.83-1.56-2.71-2.4-.87-.86-1.75-1.69-2.47-2.8a3.42 3.42 0 0 1-.46-.96c-.1-.35-.14-.69-.2-1.02-.08-.67-.14-1.33-.17-1.99-.07-1.33-.07-2.65-.01-3.98.06-1.32.15-2.65.33-3.96.17-1.34.4-2.65.91-3.89zm.06.06c-.4 1.21-.56 2.54-.66 3.84-.1 1.3-.15 2.61-.15 3.92.01 1.31.06 2.61.15 3.9.05.65.12 1.29.21 1.91.06.31.11.62.19.89.09.26.2.47.38.72.66.94 1.54 1.79 2.39 2.61.86.81 1.76 1.59 2.68 2.34.46.37.92.73 1.39 1.08l.7.5.35.22c.1.05.17.1.28.11.99.1 2.2-.13 3.29-.33l-.21.13c1.4-1.63 2.61-3.51 3.76-5.42 1.14-1.92 2.24-3.89 3.26-5.91.51-1.01 1.02-2.02 1.49-3.05.49-.99.7-2.15.55-3.26-.07-.56-.26-1.07-.45-1.6s-.38-1.05-.59-1.57c-.4-1.04-.86-2.06-1.32-3.06-.93-2.01-1.95-3.97-3.11-5.77-.29-.44-.6-.88-.94-1.24-.17-.18-.35-.34-.51-.44a.431.431 0 0 0-.2-.07c-.06 0-.17.06-.26.08-.84.35-1.74 1.02-2.59 1.61-3.39 2.49-6.73 5.22-10.08 7.86z" fill="#90593f" stroke-width="none" opacity="1" stroke="none"></path><path id="SvgjsPath5407" d="M131.21 88.66s10.75-13.58 12.77-12.45c2.01 1.12 5.19 7.53 5.18 9.67-.02 3.14-3.34 8.38-5.01 9.96s-3.68 2.55-6.35 1.94c-2.66-.61-6.59-9.12-6.59-9.12z" fill="#90593f" stroke-width="none" opacity="1" stroke="none"></path><path id="SvgjsPath5408" d="M148.54 85.31c-.26-.67-.52-1.34-.84-1.98-.3-.64-.62-1.27-.96-1.89-.67-1.24-1.38-2.44-2.12-3.62l-.08-.12-.08.12c-.74 1.1-1.36 2.27-1.97 3.45-.6 1.18-1.14 2.4-1.66 3.64-.49 1.24-1 2.48-1.45 3.74-.46 1.26-.9 2.53-1.28 3.81l.06.03c.55-1.21 1.07-2.44 1.6-3.66l1.56-3.67 1.54-3.67c.51-1.16 1.01-2.35 1.68-3.39.74 1.1 1.39 2.29 1.96 3.51.58 1.24 1.08 2.52 1.52 3.82-.5 1.34-.99 2.67-1.52 3.99l-.81 2.03c-.23.53-.47 1.07-.73 1.56-.47-.48-.91-1.03-1.24-1.65-.39-.73-.64-1.55-.68-2.41.43-1 .84-2.02 1.26-3.03l-.05-.03c-.52.98-1.05 1.95-1.55 2.94l-.02.04v.06c-.03.96.2 1.92.6 2.74.2.41.43.81.69 1.17.26.36.53.71.87 1.02l.25.23.19-.31c.4-.67.69-1.34.99-2.01.29-.68.57-1.36.83-2.05.51-1.38 1.01-2.77 1.47-4.18l.04-.12-.07-.11z" fill="#71361b" stroke-width="none" opacity="1" stroke="none"></path></g></g><g id="svga-group-faceshape-wrap" transform="matrix(0.9999999,0,0,0.9999999,0.000009998934544341864,0.000009044970894933613)"><g id="svga-group-faceshape-single"><path id="SvgjsPath5626" d="M140.4 54.9c-2.2-10-6.3-16-15.2-20.8-9.3-5-25.2-4.8-25.2-4.8s-15.9-.2-25.2 4.8c-8.8 4.8-13 10.8-15.2 20.8-.9 4 0 13.6 0 13.6s1.2 11.9 1.2 15.3-.6 9.6.2 16.4 6.8 23.5 18.1 37.6 20.9 13.8 20.9 13.8 9.6.3 20.9-13.8 17.3-30.9 18.1-37.6c.8-6.8.2-13 .2-16.4s1.2-15.3 1.2-15.3c-.1-.1.9-9.6 0-13.6z" fill="#9f6d56" stroke-width="none" opacity="1" stroke="none"></path><path id="SvgjsPath5627" d="M140.4 54.9c-2.2-10-6.3-16-15.2-20.8-9.3-5-25.2-4.8-25.2-4.8s-15.9-.2-25.2 4.8c-8.8 4.8-13 10.8-15.2 20.8-.9 4 0 13.6 0 13.6s1.2 11.9 1.2 15.3-.6 9.6.2 16.4 6.8 23.5 18.1 37.6 20.9 13.8 20.9 13.8 9.6.3 20.9-13.8 17.3-30.9 18.1-37.6c.8-6.8.2-13 .2-16.4s1.2-15.3 1.2-15.3c-.1-.1.9-9.6 0-13.6zm0 10.1c-.1 1.1-.2 2.2-.3 3.4l-.5 4.9c-.2 1.6-.4 3.3-.5 4.9-.2 1.7-.3 3.3-.4 5-.1 1.7 0 3.3 0 5 0 3.3-.1 6.6-.4 9.8 0 .4-.1.8-.1 1.2l-.1.6-.1.6c-.1.8-.3 1.6-.5 2.3-.4 1.6-.9 3.1-1.4 4.7-1.1 3.1-2.3 6.1-3.7 9.1s-2.9 5.9-4.6 8.7c-.4.7-.8 1.4-1.3 2.1-.4.7-.8 1.4-1.3 2.1l-1.4 2-1.4 2c-.5.7-1 1.3-1.5 2l-.7 1-.4.5-.4.5-1.6 1.9c-.5.6-1.1 1.2-1.7 1.8-2.3 2.3-4.7 4.4-7.4 6.1-1.4.8-2.7 1.6-4.2 2.1-.7.3-1.5.5-2.2.7s-1.5.3-2.2.4c-.6 0-1.4-.1-2.1-.2-.7-.2-1.5-.4-2.2-.6-1.5-.5-2.9-1.2-4.3-2-2.8-1.6-5.3-3.7-7.6-5.9-2.3-2.3-4.4-4.8-6.3-7.4-2-2.6-3.8-5.4-5.5-8.1-1.7-2.8-3.3-5.7-4.7-8.7-1.4-3-2.7-6-3.8-9.1-.3-.8-.5-1.6-.8-2.3l-.4-1.2-.3-1.2-.3-1.2c-.1-.4-.2-.8-.2-1.2-.1-.4-.1-.8-.2-1.2l-.1-1.2c-.3-3.3-.4-6.6-.3-9.9 0-1.7.1-3.3.1-5s-.1-3.3-.3-5c-.2-3.3-.5-6.6-.8-9.9s-.4-6.6-.3-9.9c0-.8.1-1.6.2-2.4.1-.8.2-1.5.5-2.3.4-1.6.9-3.1 1.5-4.7 1.2-3 2.8-5.8 4.9-8.2.5-.6 1.1-1.1 1.7-1.7.6-.5 1.2-1 1.9-1.5.6-.5 1.3-.9 2-1.4.7-.4 1.4-.9 2.1-1.2.4-.2.7-.4 1.1-.6l1.1-.5.5-.3.6-.2 1.1-.4c.4-.1.8-.3 1.1-.4.4-.1.8-.3 1.1-.4l1.2-.3 1.2-.3c3.2-.7 6.4-1.2 9.6-1.5 1.6-.1 3.3-.3 4.9-.3.8 0 1.6-.1 2.4-.1h2.4c3.3.1 6.5.3 9.8.7 3.2.4 6.5 1.1 9.5 2.2.4.1.8.3 1.1.4l1.1.5.6.3.5.3 1.1.6c1.4.8 2.8 1.7 4.1 2.7s2.5 2.2 3.5 3.4c1.1 1.3 2 2.6 2.8 4.1 1.6 2.9 2.5 6.1 3.3 9.3.2 1.1.3 2.2.3 3.4v3.4c0 1 0 2.1-.1 3.2z" fill="#71361b" stroke-width="none" opacity="1" stroke="none"></path></g></g><g id="svga-group-mouth-single-move" transform="matrix(1,0,0,1,-0.5,2)"><g id="svga-group-mouth-single" transform="matrix(1.0000001,0,0,1.0000001,-0.0000101057003121241,-0.000012464820102309204)"><path id="SvgjsPath6326" d="M119.75 120.2c-2.07.95-4.03 1.44-5.29 1.57-4.78.49-8.33.87-12.75 2.53-1.8.7-2.7.9-4.5.4-1.4-.4-2.8-.7-4.2-.9-2.1-.32-4.18.13-6.29.2-1.2.04-2.44-.29-3.84-.62-.7 0-1.25.22.14.97 3.11 1.68 5.12 1.2 8.62 2 2.4.5 6.2 3.44 8.6 2.64 3-1 6.57-3.23 9.57-4.23 3.3-1 4.76-.51 9.4-3.4.65-.45.99-1.37.54-1.16z" fill="#6c3229" stroke-width="none" opacity="1" stroke="none"></path></g></g><g id="svga-group-eyes-left-move" transform="matrix(1,0,0,1,0,0)"><g id="svga-group-eyes-left"><g id="svga-group-eyesback-left"><path id="SvgjsPath5443" d="M80.2 74.2c7.5 0 13.5 5.8 13.5 13s-6 13-13.5 13-13.5-5.8-13.5-13 6-13 13.5-13z" fill="#ffffff" stroke-width="none" opacity="1"></path></g><g id="svga-group-eyesiriswrapper-left" transform="matrix(1,0,0,1,0,0)"><g id="svga-group-eyesiriscontrol-left" transform="matrix(1,0,0,1,0,0)"><g id="svga-group-eyesiris-left"><path id="SvgjsPath5518" d="M80.2 81.6c3.1 0 5.6 2.5 5.6 5.6s-2.5 5.6-5.6 5.6-5.6-2.5-5.6-5.6 2.5-5.6 5.6-5.6z" fill="#311c00" stroke-width="none" opacity="1" stroke="none"></path><path id="SvgjsPath5519" d="M80.2 84.2c1.7 0 3 1.3 3 3s-1.3 3-3 3-3-1.3-3-3 1.3-3 3-3z" fill="#000000" stroke-width="none" opacity="1"></path><path id="SvgjsPath5520" d="m79.5 84.8-.6-.6c-.2-.2-.5-.3-.8-.3s-.6.1-.8.3c-.2.2-.3.5-.3.8s.1.6.3.8l.6.6c.2.2.5.3.7.3.3 0 .6-.1.7-.3.6-.6.6-1.2.2-1.6zm2.7 5.1c1 0 1-1.5 0-1.5-.9 0-.9 1.5 0 1.5z" fill="#ffffff" stroke-width="none" opacity="1"></path></g></g></g><g id="svga-group-eyesfront-left"><path id="SvgjsPath5451" d="M80.2 73.7c-7.8 0-14.1 6.1-14.1 13.6s6.3 13.6 14.1 13.6 14.1-6.1 14.1-13.6S88 73.7 80.2 73.7zm-4.9 20.2c-4.8-1.7-6.4-6.7-7.2-10.1-.9-3.5 13.8-3.5 17.5-.4 3.8 3 5.3 7.3 5.5 9.6.1-.1-11 2.6-15.8.9z" fill="#9f6d56" stroke-width="none" opacity="1" stroke="none"></path><path id="SvgjsPath5452" d="M91.1 92.5c-.1-.5-.1-1-.3-1.4l-.3-.9c-.5-1.9-1.5-4.5-3-6.2-1.2-1.3-4.1-4.4-9-4.4s-8.2 1.6-8.8 1.9c-.2.1-.5.3-.7.5-.4.2-.8.5-1.1 1-.1.2-.1.3-.1.5-.1.1-.1.2-.1.2h.1c0 .1 0 .3.1.4.1.3.2.6.2.9l.6 1.8c.4 1.2.9 2.3 1.6 3.4.7 1.1 1.5 2 2.5 2.8s2.2 1.3 3.4 1.6c2.5.5 5 .3 7.5 0s4.9-.8 7.3-1.5c.2-.2.2-.4.1-.6zm0 .4c-2.4.4-4.9.8-7.3 1.1-1.2.1-2.5.2-3.7.2-1.2 0-2.5 0-3.7-.2-2.4-.4-4.6-1.9-5.8-4-.7-1-1.2-2.2-1.6-3.3-.2-.6-.4-1.2-.5-1.8-.1-.3-.2-.6-.2-.9 0-.2-.1-.3-.1-.4 1.4-.4 6.6-1.9 10.5-1.9 4.5.1 7.9 3.6 9.3 5.1 1.2 1.1 3 5.1 3.1 6.1z" fill="#000000" stroke-width="none" opacity="1" stroke="none"></path></g></g></g><g id="svga-group-eyes-right-move" transform="matrix(1,0,0,1,0,0)"><g id="svga-group-eyes-right"><g id="svga-group-eyesback-right"><path id="SvgjsPath5444" d="M119.8 74.2c7.5 0 13.5 5.8 13.5 13s-6 13-13.5 13-13.5-5.8-13.5-13 6-13 13.5-13z" fill="#ffffff" stroke-width="none" opacity="1"></path></g><g id="svga-group-eyesiriswrapper-right" transform="matrix(1,0,0,1,0,0)"><g id="svga-group-eyesiriscontrol-right" transform="matrix(1,0,0,1,0,0)"><g id="svga-group-eyesiris-right"><path id="SvgjsPath5521" d="M119.8 82.3c2.7 0 4.9 2.2 4.9 4.9s-2.2 4.9-4.9 4.9-4.9-2.2-4.9-4.9 2.2-4.9 4.9-4.9z" fill="#311c00" stroke-width="none" opacity="1" stroke="none"></path><path id="SvgjsPath5522" d="M119.8 84.6c1.4 0 2.6 1.2 2.6 2.6s-1.2 2.6-2.6 2.6-2.6-1.2-2.6-2.6 1.2-2.6 2.6-2.6z" fill="#000000" stroke-width="none" opacity="1"></path><path id="SvgjsPath5523" d="M119.2 85.1c-.2-.2-.3-.4-.5-.5-.2-.2-.4-.3-.7-.3-.2 0-.5.1-.7.3-.2.2-.3.4-.3.7 0 .2.1.5.3.7.2.2.4.3.5.5.2.2.4.3.7.3.2 0 .5-.1.7-.3.3-.5.3-1.1 0-1.4zm2.4 4.5c.8 0 .9-1.3 0-1.3-.8-.1-.8 1.3 0 1.3z" fill="#ffffff" stroke-width="none" opacity="1"></path></g></g></g><g id="svga-group-eyesfront-right"><path id="SvgjsPath5453" d="M119.8 73.7c-7.8 0-14.1 6.1-14.1 13.6s6.3 13.6 14.1 13.6 14.1-6.1 14.1-13.6-6.3-13.6-14.1-13.6zm5.3 19.5c-4.4 1.8-15 .1-15 .1.1-1.9 1.3-5.8 4.7-8.7 3.4-2.9 17.2-3.8 16.6-.7-.7 3.1-1.9 7.6-6.3 9.3z" fill="#9f6d56" stroke-width="none" opacity="1" stroke="none"></path><path id="SvgjsPath5456" d="M131.6 84.1s0-1.3-.9-1.7c-.6-.2-4.4-1-9.1-.7-2.6.2-4.6 1.1-6.1 2.1-.3.2-.6.3-.8.5-.9.8-1.7 1.6-2.4 2.6-1.3 1.9-2.3 4.1-2.3 6.4 0 .3.1.8.1.8s.1-.3.2-.7c2.2.4 4.3.7 6.6.8 1.2.1 2.3.1 3.4.1 1.2 0 2.3-.2 3.4-.4s2.2-.8 3.2-1.4c.9-.7 1.7-1.6 2.4-2.5.6-1 1.1-2 1.5-3.1.2-.5.3-1.1.5-1.7l.2-.8c0-.1 0-.1.1-.2v-.1zm-.4.1-.2.8c-.1.6-.3 1.1-.4 1.7-.4 1.1-.8 2.1-1.4 3.1-1.2 1.9-3.3 3.2-5.5 3.6-.6.1-1.1.2-1.7.3-.6 0-1.1.1-1.7.1-1.1.1-2.3.1-3.4 0-2.2-.1-4.4-.2-6.6-.4.4-1.5 1.5-4.6 2.4-5.7 1.2-1.5 4.2-4.5 8.5-4.9 3.6-.3 8.6.8 10 1.2v.2z" fill="#000000" stroke-width="none" opacity="1" stroke="none"></path></g></g></g><g id="svga-group-facehighlight-single"></g><g id="svga-group-eyebrows-left-move" transform="matrix(1,0,0,1,0,0)"><g id="svga-group-eyebrows-left-rotate" transform="matrix(1,1.7453292519943295e-9,-1.7453292519943295e-9,1,1.2391838311032188e-7,-1.3753196981269866e-7)"><g id="svga-group-eyebrows-left" transform="matrix(1.1000003000000003,0,0,1.1000003000000003,-7.9040444029800625,-7.2589710566330155)"><path id="SvgjsPath7112" d="M67.87 76.23s1.96-4.66 6.27-6.5c4.32-1.84 16.59 1.19 15.86 4.07-.73 2.87-4.1 1.64-6.44.58s-7.93-6.39-15.69 1.85z" fill="#1d1b19" stroke-width="none" opacity="1" stroke="none"></path><path id="SvgjsPath7113" d="M90.03 72.96c-.29-.52-.75-.86-1.2-1.16-.47-.29-.96-.54-1.45-.76-1-.43-2.04-.76-3.09-1.05-2.1-.56-4.25-.98-6.44-1.04-1.09-.01-2.21.05-3.28.38-1.06.38-2.02.95-2.87 1.64-.86.69-1.6 1.52-2.24 2.39-.33.44-.62.9-.89 1.37-.14.24-.26.48-.38.72-.06.12-.12.24-.17.37l-.08.19-.04.09-.02.05c-.01.03-.01.06-.01.08.19-.18.4-.35.61-.55.21-.21.41-.36.62-.55.2-.18.41-.35.62-.51.21-.17.42-.34.64-.49.87-.63 1.8-1.17 2.79-1.56a8.6 8.6 0 0 1 3.08-.63c.53 0 1.05.05 1.57.13.52.09 1.03.24 1.52.42 1 .35 1.93.86 2.87 1.4.47.27.94.56 1.46.78.5.22 1.01.43 1.53.6.52.18 1.05.34 1.61.42.55.09 1.13.12 1.7-.03.28-.07.56-.19.8-.37s.43-.41.58-.66c.14-.25.24-.53.31-.8.03-.15.04-.31.02-.46-.05-.13-.1-.28-.17-.41zm-.18.81c-.07.25-.17.49-.3.7-.26.43-.69.72-1.17.82-.49.11-1.01.07-1.53-.02-.51-.1-1.02-.25-1.52-.43s-.99-.39-1.48-.61c-.48-.21-.93-.49-1.4-.77-.93-.56-1.91-1.09-2.95-1.46-1.05-.37-2.17-.57-3.28-.53-1.11.05-2.22.31-3.22.75-1.01.44-1.94 1.04-2.79 1.72-.22.17-.42.34-.62.53-.21.18-.41.36-.6.56-.19.19-.4.38-.56.57-.17.19-.33.4-.53.61 1.02-1.85 2.36-3.63 4.05-4.92.84-.64 1.78-1.18 2.76-1.52 1-.29 2.08-.37 3.15-.39 1.07-.01 2.15.05 3.22.18 1.07.13 2.13.32 3.18.59 1.05.27 2.07.61 3.05 1.06.49.22.97.47 1.41.78.43.3.85.66 1.08 1.1a1 1 0 0 1 .05.68z" fill="#0e0c0a" stroke-width="none" opacity="1" stroke="none"></path></g></g></g><g id="svga-group-eyebrows-right-move" transform="matrix(1,0,0,1,0,0)"><g id="svga-group-eyebrows-right-rotate" transform="matrix(1,1.7453292519943295e-9,-1.7453292519943295e-9,1,1.2705996255135688e-7,-2.123193070246998e-7)"><g id="svga-group-eyebrows-right" transform="matrix(1.1000003000000003,0,0,1.1000003000000003,-12.158036657106038,-7.118317787384427)"><path id="SvgjsPath7114" d="M132.8 72.8s-2.65-4.3-7.2-5.46c-4.55-1.16-16.21 3.72-15.05 6.45s4.3.99 6.45-.41c2.16-1.41 6.87-7.53 15.8-.58z" fill="#1d1b19" stroke-width="none" opacity="1" stroke="none"></path><path id="SvgjsPath7115" d="m132.8 72.74-.03-.05-.05-.09-.11-.17c-.07-.12-.15-.23-.23-.34-.16-.22-.32-.44-.49-.65-.34-.43-.7-.84-1.09-1.22-.78-.77-1.63-1.47-2.58-2.02-.95-.56-1.98-.97-3.09-1.18-1.11-.16-2.22-.06-3.3.13-2.16.39-4.22 1.13-6.2 2.01-.99.45-1.97.93-2.89 1.51-.46.29-.91.61-1.32.97-.41.37-.81.77-1.01 1.33-.05.14-.08.29-.08.44 0 .15.03.31.09.45.11.26.25.51.43.74.18.23.41.43.67.57.26.14.56.22.85.24.59.06 1.15-.06 1.68-.23s1.04-.41 1.52-.66c.49-.26.96-.54 1.42-.83.48-.29.9-.66 1.32-.99.84-.68 1.68-1.33 2.62-1.83.46-.25.94-.48 1.44-.64.5-.17 1.01-.29 1.53-.37 1.04-.14 2.11-.1 3.14.15 1.03.24 2.04.62 3 1.11.24.12.47.25.71.38s.47.26.7.41c.23.15.45.27.69.45.24.16.48.3.69.45-.01-.01-.01-.05-.03-.07zm-.63-.48c-.19-.16-.43-.32-.64-.48-.22-.16-.44-.31-.67-.46-.23-.15-.46-.3-.7-.43-.95-.54-1.95-1-3.02-1.28a8.942 8.942 0 0 0-3.3-.25c-1.11.13-2.18.5-3.16 1.03-.98.52-1.86 1.2-2.7 1.89-.42.35-.82.7-1.26.98-.45.3-.9.58-1.37.83-.47.26-.95.49-1.44.66-.49.17-1.01.29-1.5.26-.5-.03-.96-.25-1.29-.63-.16-.19-.3-.41-.41-.65-.1-.21-.1-.45-.03-.69.15-.48.51-.89.89-1.26.39-.37.82-.69 1.27-.98.9-.59 1.86-1.09 2.86-1.51.99-.42 2.02-.78 3.05-1.07 1.04-.29 2.09-.52 3.15-.68 1.06-.15 2.13-.24 3.17-.1 1.02.18 2.04.57 2.96 1.08 1.87 1.02 3.47 2.57 4.76 4.24-.23-.16-.42-.34-.62-.5z" fill="#0e0c0a" stroke-width="none" opacity="1" stroke="none"></path></g></g></g><g id="svga-group-beardwrap" transform="matrix(0.9999999,0,0,0.9999999,0,0)"><g id="svga-group-beard-single-move" transform="matrix(1,0,0,1,0,0)"><g id="svga-group-beard-single"></g></g></g><g id="svga-group-mustache-single-move" transform="matrix(1,0,0,1,0,0)"><g id="svga-group-mustache-single"></g></g><g id="svga-group-nose-single-move" transform="matrix(1,0,0,1,0,0)"><g id="svga-group-nose-single"><path id="SvgjsPath5553" d="M99.1 116.5c.67.12 4.53-3.31 4.53-3.31s2.06 1.59 3.62 1.43c1.56-.16 2.44-1.08 3-1.96.56-.88-.89-3.1-1.78-4.41-.9-1.31-3.54-5.22-4.09-7.02-1.07-3.45-3-4.76-4.92-4.64-1.92.12-4.04 1.52-4.6 3.44-.56 1.92-.72 4.28-1.8 5.76s-3.32 4-3.56 4.72c-.24.72-.11 2.8 1.24 3.56 1.73.97 4.3-.51 4.3-.51s3.18 2.78 4.06 2.94z" fill="#9f6d56" stroke-width="none" opacity="1" stroke="none"></path><path id="SvgjsPath5554" d="M110.28 110.87c-.42-1.01-1.08-1.86-1.81-2.61.57.88 1.08 1.8 1.39 2.76.15.48.24.97.16 1.42-.05.23-.12.41-.26.6-.13.2-.29.39-.47.54-.69.66-1.7.91-2.68.78-.49-.06-.99-.2-1.46-.39-.45-.16-.86-.39-1.29-.62.38-.56.72-1.15 1.02-1.76-.97.91-1.89 1.83-2.87 2.64-.49.4-.98.8-1.51 1.09-.51.3-1.07.55-1.51.52-.12.01-.21-.02-.31-.04-.09-.05-.17-.06-.3-.16-.24-.15-.49-.36-.74-.55-.5-.39-.99-.82-1.49-1.23-.99-.84-1.99-1.69-3.07-2.48a21.8 21.8 0 0 0 1.68 2.24c-.5.22-1.01.41-1.53.52-.64.12-1.3.15-1.84-.1-1.09-.53-1.72-1.83-1.54-2.94.05-.28.13-.5.3-.74.17-.26.36-.53.56-.79.4-.52.82-1.02 1.26-1.52l.66-.74c.26-.28.46-.56.67-.84.41-.57.77-1.18 1.07-1.83.3-.65.48-1.4.59-2.06.12-.68.22-1.35.3-2.02.15-1.35.27-2.69.31-4.04.1-2.7.03-5.42-.51-8.07.05 2.69-.14 5.35-.4 8-.15 1.32-.29 2.65-.5 3.96-.1.66-.2 1.31-.32 1.96-.12.66-.27 1.22-.54 1.79a9.34 9.34 0 0 1-.94 1.65c-.18.26-.37.53-.57.74-.23.26-.45.51-.66.78-.43.53-.85 1.07-1.24 1.63-.2.28-.39.57-.57.88-.2.33-.34.76-.37 1.14-.13 1.57.85 3.05 2.25 3.55.73.23 1.47.11 2.12-.11.54-.19 1.03-.46 1.49-.77.24.28.47.57.71.84.44.5.91.96 1.41 1.42.25.23.51.44.82.65.13.1.36.22.57.3.22.06.44.12.66.11.88 0 1.55-.38 2.14-.76.58-.41 1.1-.86 1.55-1.37.44-.48.84-.99 1.21-1.53.75.66 1.64 1.25 2.68 1.45.54.12 1.11.12 1.66 0 .55-.14 1.07-.41 1.49-.8.21-.19.39-.42.54-.65.17-.23.29-.54.32-.84.06-.55-.08-1.1-.29-1.6z" fill="#71361b" stroke-width="none" opacity="1" stroke="none"></path></g></g><g id="svga-group-hair-front" transform="matrix(0.9999999,0,0,0.9999999,0.000010045587529816657,0.000005377499959990928)"><path id="SvgjsPath8799" d="M151.4 72.2c.5-1.9.6-4.1-.1-5.9-.4-.9-1.1-1.9-1.9-2.6.3-1.5.2-3-.4-4.4-.4-.8-.9-1.3-1.4-1.7-.3-.6-.7-1.1-1.2-1.5.1-.3.1-.6.2-.9 1.9-1.7 2.7-4.9 2.2-7.2-.4-1.6-1.5-3.3-3-4.3-.2-.8-.5-1.5-.8-2.1-1.3-2.3-3.5-3.7-5.8-4.6-.5-3.2-2.4-5.8-5.5-6.3-.1-.2-.1-.4-.2-.6-1.1-2.7-3.6-4-6.4-4.1-1.7-.1-3.4.5-5.2.5-1.8 0-3.3-.8-4.8-1.7-.8-1.9-2.3-3.4-4.1-4.5l-.4-.4c-.2-.2-.5-.2-.8-.2-.1 0-.1 0-.2-.1-.2-.3-.6-.6-1-.8-.4-.1-.8.2-.8.6 0 1 .1 1.9-.2 2.6-.2.2-.3.5-.5.8-.1.1-.3.3-.4.5-.3.2-.6.4-.8.6-1.4-.3-2.9 0-4.6 0-2.4-.1-4.1-1.3-5.4-2.9-.1-.7-.1-1.4-.1-2.1.1-.4.2-.7.3-1.1v-.2c.1-.1.3-.1.4-.2.1 0 .1-.1.2-.1.3 0 .7-.1 1-.2.5-.1.7-.7.3-1.1-1.4-1.4-3.8-.8-5.3.1-.1 0-.1.1-.2.1-1.4.5-2.6 1.7-3.1 3.6-.2.7-.3 1.3-.3 2-1.9-.3-4 1.2-5.4 2.7-1.1-1.1-3.2-1.8-4.8-1.9-.3-.1-.6-.2-.9-.2-1-.1-2 .1-2.8.6-.2.1-.4.1-.6.2-.2.1-.4.3-.4.6-1.6 1.1-2.4 3-2.4 4.9-.3.4-.6.7-1 1.1l-1 1c-.6.1-1.3.1-2.1 0-1.7-.3-3.2-1.2-4.9-1.4-2.6-.2-4.3 1.3-4.2 3.8 0 .1 0 .2.1.3-.4.1-.8.3-1.2.4-1.7.7-3.3 1.9-3.9 3.7-.6 1.8.3 2.6.7 4.2.7 2.4-2.1 3.2-3 5.3-.6 1.4-.5 2.8.1 4.2.1.2.3.5.4.8-.6 1-.7 2.6-.4 4.2-2.4-1.1-5-2-5.2-4.3 0-.5-.9-.8-1-.1-.4 2.2.3 3.7 2.2 4.9 1.3.9 3 1.3 4.3 2.4-.2.1-.3.3-.3.6 0 .6-.2 1.2-.5 1.8 0 .1-.1.1-.1.2v.1c-1 1.7-3 3.5-3.7 5.1-.2.6-.4 1.2-.6 1.9-1.6.7-2.9 3-3.4 4.3-1.2 3-.9 6.5 1.7 8.6.4.3 1 0 .9-.5-.7-2.5-.6-5.4.6-7.7-.3 2.1.6 3.8 2.7 4.6 1.3.5 2.6.4 3.9.6.8.1 1.6.2 2.3.8.3.2.5.6.7.9-.2.4-.4.8-.4 1.4-.4.7-.7 1.4-.9 2.1-.4 1.1-.5 2.3-.2 3.4.8 2.4 3.2 2.5 5.2 1.7.9-.4.5-1.9-.5-1.8-.5 0-1.4.1-1.8-.3-.5-.5-.2-1.4 0-2 .4-1.1 1-2.4.5-3.5.1-.1.2-.3.3-.4v-.2c.9-.7 1.9-1.4 2.5-2.3.6-1.2.5-2.5-.2-3.5 2.8-1 3.9-5.1 3-7.8-.2-.5-.5-1.1-.9-1.6-.7-2-1.7-3.3-1.2-5.6.2-1.2.7-2 1.4-2.8-.8 2.5-.3 5.7 2.6 6.4.3.1.6-.3.3-.6-5.1-4.3 4.8-9.5 7.3-12.9.2-.2.3-.5.5-.8.6 2.2 2 4.3 4.2 4.5.7.8 1.6 1.2 2.8 1.2.1 0 .2 0 .3-.1 1 .4 2.1.5 3.1-.2.4-.3.3-.8-.1-1-.7-.2-1.3-.3-1.9-.5-.4-1.1-.8-2.2-.9-3.2 2.4-6.2 10-5.6 14.4-9.7 1.3 1.2 2.8 1.7 4.7 1.9 1.3.1 2.6.2 3.7.9 1.1.8 1 1.9 1.2 3.1.1.8 1 1.1 1.7.9-.4 2-1.9 3.2-2.9 5-.2.4 0 1 .5.9.6-.1 1.1-.2 1.6-.5.5-.1.9-.3 1.4-.5 4.8 0 6.2-5.4 5.8-9.5.9 2.2 2.6 4 4.7 5 .9.5 2.4.8 3.9.9.1 0 .1 0 .1.1 1.1.4 2 1.1 2.8 2 .6.7 1 1.7 1.9 2 .5 2.1 2.1 4.4 4 4.9.2 0 .4.1.6.1.4.4.9.7 1.3 1 .6.4 1.3.6 2 .8.8 2.5-.3 4-1.6 6.1-1.5 2.5-1.3 4.8.5 7 .1.2.3.2.5.2-.9 2.7-1 5.7 1 7.8.5 1.8 2.1 4.2 4.3 3.6.3-.1.6-.5.3-.8-.6-.7-1.2-1.3-1.7-1.9 0-.1.1-.1.1-.2 1-3.6 6-3.4 8.1-6.3v.1c-.4 2.4-.4 5.2 1.6 6.8.4.3.9-.1.9-.5-.1-1.6-.7-2.9-.4-4.5.1-2 1-3.2 1.5-4.6zm-39.8-46.7c-.1 0-.1 0-.2.1-.2.1-.3.3-.4.4-.3-.3-.6-.6-.8-.9.1-.1.2-.2.3-.4.4-.5.8-1.2.9-1.9.1-.1.1-.3.2-.4.1 1.1.1 2.1 0 3.1z" fill="#171717" stroke-width="none" opacity="1" stroke="none"></path><path id="SvgjsPath8800" d="M95 39.5c-.7.8-1.6 1.5-2.6 1.9-2 .9-4.4 1.3-6.7 2.6-1.1.7-2.2 1.5-2.9 2.7-.7 1.2-1.1 2.7-.7 4.1.3 1.4 1.3 2.5 2.5 3.1 1.2.6 2.6.6 3.7 0-1.3.1-2.4-.2-3.3-.9-.8-.6-1.4-1.6-1.5-2.6-.3-2 1.2-3.7 3.1-4.7 1.8-1.1 4.3-1.6 6.5-3 1.1-.7 2.1-1.6 2.7-2.7.6-1.1.9-2.5.4-3.7 0 1.3-.5 2.4-1.2 3.2zM78.8 52.6c-.9-.6-1.7-1.4-2.3-2.3-.6-1-1.1-2-1.2-3.4-.7 1.2-.7 2.7-.2 4 .5 1.3 1.4 2.5 2.6 3.3 1.2.8 2.6 1.2 3.9 1.3 1.4.1 2.7-.1 3.9-.6-1.3-.3-2.5-.5-3.7-.9-1-.3-2.1-.8-3-1.4zM72.2 44c.9 1.8 1 3.7.4 5.4-.3.8-.7 1.5-1.4 2.1-.6.6-1.4 1.1-2.2 1.6-.8.5-1.7 1.1-2.5 1.8-.8.8-1.5 1.7-1.8 2.9-.5 2.4 1.1 4.7 3.1 5.1-1.6-1.2-2.1-3.2-1.6-4.7.6-1.5 2.2-2.4 3.8-3.5.8-.5 1.7-1.1 2.5-2 .8-.8 1.3-1.9 1.5-3 .5-2.1-.2-4.4-1.8-5.7zm-8.4-14c1.1.1 2.2.6 3.4 1 1.2.4 2.6.8 4.1.4.7-.2 1.5-.6 2.1-1.2.6-.6.9-1.4 1.1-2 .3-1.4.4-2.5.9-3.4.4-.9 1.3-1.5 2.3-2 2-.8 4.5-.2 6.7 1-.9-.9-1.9-1.7-3.2-2.2-1.2-.5-2.7-.6-4-.3-1.4.3-2.7 1.2-3.5 2.5-.8 1.4-.8 2.7-1.1 3.8-.3 1.1-.7 1.7-1.7 1.9-.4.1-1 .2-1.5.2s-1.1-.1-1.7-.2c-1.2-.2-2.5-.6-3.8-.5-.7.1-1.3.3-1.9.6-.6.3-1 .9-1.2 1.5.6-1 1.8-1.2 3-1.1zm-8.5 22.6c-1.8-1.3-2.6-3.5-2-5.2.3-.9.8-1.7 1.5-2.2.3-.2.8-.5 1.3-.9.3-.2.5-.4.8-.8.3-.3.5-.8.5-1.3s-.2-1-.3-1.3c-.2-.3-.4-.6-.6-.8-.3-.4-.4-.6-.5-1-.2-.7.1-1.6.6-2.3.5-.7 1.4-1.2 2.4-1.3 1-.2 2.1-.1 3.2.1-.9-.6-2-1-3.2-1.1-1.2 0-2.5.3-3.5 1.3-.9.9-1.5 2.2-1.3 3.7 0 .7.5 1.5.9 1.9.4.5.5.7.5.8 0 0 0 .1-.1.2l-.4.4c-.4.3-.8.5-1.4 1-1 .9-1.7 2-1.9 3.3-.2 1.2.1 2.6.7 3.6.7 1 1.7 1.7 2.8 1.9zm1.6 35.5c-1.1-1.2-1.2-3.2-.2-4.6.2-.4.6-.9.8-1.6.3-.7.3-1.6-.1-2.3-.8-1.3-2.2-1.8-3.4-1.8-1.2 0-2.2.2-3.1.2-.9-.1-1.9-.4-2.4-1.4 0 .5.3 1.1.7 1.5.4.4.9.7 1.5.9 1.1.3 2.2.3 3.1.4.5.1.8.2 1.2.4.3.2.6.5.7.7s.1.4 0 .7c-.1.3-.4.7-.7 1.2-1.4 2.1-1.2 5.2.9 6.8 2 1.7 5.2.8 6-1.3-1.5 1.6-3.9 1.4-5 .2zM64 63c-.8-.7-1.6-1.3-2.2-2.1-.6-.8-1-1.8-.8-2.8-.6.9-.5 2.3 0 3.3.5 1.1 1.3 2 2 2.7.7.8 1.5 1.5 1.9 2.3.4.8.6 1.7.6 2.6 0 .9-.3 1.8-.7 2.6-.4.8-1.1 1.3-1.9 2-.8.6-1.8 1.2-2.5 2.2-.3.5-.6 1-.7 1.6-.1.6 0 1.2.2 1.7-.1-1.1.5-2 1.2-2.6l.9-.6c.4 1 .4 2 .1 2.8-.2.5-.4.8-.8 1.2-.4.3-.9.7-1.5 1.2-.5.4-1.1 1.1-1.4 1.9-.2.8-.3 1.6 0 2.4.5 1.6 2 2.6 3.3 2.4-1.2-.7-1.8-1.7-1.8-2.7 0-.5.1-1 .3-1.4.2-.4.5-.7.9-1.1.4-.4 1-.8 1.5-1.3.5-.6 1-1.4 1-2.1.2-1.3-.3-2.6-1.2-3.3.5-.2.9-.5 1.4-.7 1-.5 2-1.2 2.7-2.3.7-1.1 1.1-2.3 1.1-3.5 0-1.2-.3-2.5-1-3.6-.9-1.4-1.8-2.1-2.6-2.8zM46 74.9c0-1.3.3-2.6.7-3.8.1-.4.3-.7.4-1.1.2 1.6 1 3.1 2.3 4-1.5-2.1-1.5-4.8-.5-6.7.5-1 1.3-1.7 2.3-2.5 1-.8 2.1-1.9 2.6-3.4.2-.8.2-1.7-.2-2.5-.3-.8-1-1.4-1.6-1.8-1.2-.8-2.4-1.2-3.1-1.9-1.5-1.4-1.8-4.3-.2-6.3-2.3 1.4-2.9 5-.9 7.3 1 1.2 2.3 1.7 3.2 2.3.9.7 1.2 1.3.9 2.2-.2.9-1 1.7-1.9 2.6-.5.4-.9.9-1.4 1.4-.5.5-.9 1.2-1.1 1.8-.2.5-.3 1.1-.4 1.6-.7.6-1.3 1.4-1.8 2.2-.8 1.3-1.2 2.9-1.3 4.4 0 1.6.3 3.1 1 4.5s1.7 2.6 3 3.3c-.7-1.3-1.2-2.6-1.6-3.9-.3-1.1-.5-2.4-.4-3.7zm61.6-56.1c.9.2 1.6.7 2 1.3.5.7.8 1.5.8 2.3.1.8-.1 1.6-.4 2.4-.7 1.6-1.9 3-3.4 4s-3.3 1.6-5.3 1.3c.8.6 1.9.8 3 .8s2.1-.3 3.1-.8c1.9-.9 3.6-2.5 4.5-4.6.9-2 .6-4.7-1-6.4.7.5 1.3 1 1.8 1.6.6.7 1.1 1.5 1.5 2.3.4.8.6 1.7.7 2.6.1 1 .1 1.9-.1 3 .9-.7 1.4-1.8 1.7-3s.1-2.4-.4-3.5-1.3-2-2.3-2.7c-1-.6-2.1-.9-3.2-.8-.3-.3-.7-.5-1.1-.7-.6-.2-1.1-.3-1.7-.3-1.1 0-2.2.6-2.8 1.5.8-.4 1.8-.5 2.6-.3zm-16.7 6.4c1-2.1.7-4.4 1-6.1.2-.9.5-1.6 1-2.1.5-.6 1.3-1 2.2-1.2 1.7-.5 3.7 0 5.5.9-1.3-1.5-3.4-2.6-5.8-2.4-1.1.1-2.3.6-3.2 1.4-.5.4-.8.9-1.1 1.5-.3.5-.4 1.1-.6 1.7-.4 2.2 0 4.2-.5 5.9-.5 1.6-2 3.1-3.9 3.6 2.1.1 4.4-1.1 5.4-3.2zM77 41.9c-.6-1-1-1.9-1.3-2.9-.3-.9-.4-1.9-.3-2.8.1-.9.3-1.8.7-2.7.2-.3.3-.7.5-1-.2.6-.3 1.2-.2 1.8.1.8.5 1.6 1 2.3.6.7 1.3 1.1 2 1.4 1.5.6 3.3.5 4.7-.3 1.4-.8 2.3-2 2.7-3.4-1.1.9-2.2 1.6-3.3 2s-2.3.3-3.3-.1-1.9-1.1-2.2-2.2c-.3-1-.3-2.4.5-3.5-.2.1-.5.2-.7.4-1.2.1-2.2.8-3 1.7-.8.9-1.3 2.1-1.4 3.4-.1 1.3.2 2.5.8 3.6.7 1.1 1.7 1.9 2.8 2.3zm23.3-25.1c-.4-.5-1.1-.6-1.7-.5-.6.1-1.2.4-1.6.9-.4.5-.7 1.1-.7 1.7 0 .6.2 1.2.7 1.6.3-.5.6-.9.8-1.2.2-.3.4-.5.7-.8.2-.2.4-.5.7-.7.3-.4.6-.7 1.1-1zm17.8 9c.8.7 1.9 1.1 2.9 1.3 2.1.4 4.1.1 5.9 0 .9 0 1.8 0 2.6.2s1.5.6 2.1 1.1c.6.5.9 1.2.9 2.1 0 .8-.3 1.7-1.1 2.3 1-.2 1.8-1.1 2.1-2.2v-.4c.3.4.6.6.8.9.3.4.6.7.9 1l1 1c.4.3.7.7 1.3 1.1.3-.6.3-1.3.1-1.9-.2-.6-.5-1.1-.9-1.6s-1-.8-1.6-1c-.5-.1-1-.2-1.6 0 0-.3 0-.6-.1-.9-.1-.6-.4-1.1-.8-1.5-.7-.9-1.7-1.5-2.7-1.9-1.1-.4-2.1-.5-3.2-.4-2.1 0-3.9.5-5.7.4-.9 0-1.7-.2-2.5-.6-.8-.4-1.5-.9-2.1-1.8.2 1.2.8 2.2 1.7 2.8zm4.5 21.4c-1-.1-1.9-.1-2.6-.3-1.4-.3-2.6-1.5-3.3-2.9-.7-1.5-.9-3.3-1-5.1-.5 1.2-.8 2.5-.8 3.8-.6-1.1-1.5-2-2.5-2.5 1.1 1.4 1.6 2.9 1.6 4.4 0 1.5-.5 2.9-1.3 4.1-.8 1.2-2 2.2-3.5 2.7-1.3.5-2.9.8-4.5.7.7 0 1.4-.3 2-.7.9-.6 1.5-1.6 1.7-2.7.2-1.1.1-2.2-.3-3.3-.4-1-1.2-1.9-2-2.6-.8-.7-1.9-1.2-2.9-1.4-1-.2-1.9-.4-2.8-.6-.9-.2-1.7-.4-2.4-1-.7-.5-1.3-1.2-1.5-2.2-.3 1 .1 2.1.8 2.9.7.8 1.7 1.4 2.6 1.7.9.4 1.9.6 2.7.9.8.3 1.6.7 2.2 1.2 1.3 1 2.1 2.5 2 4.1 0 1.5-1.2 3.2-3.1 3.6.2 0 .4.1.6.1 1.5.9 3.4 1.2 5.2.8 1.8-.4 3.6-1.5 4.6-3.1.9-1.2 1.4-2.7 1.3-4.2.3.6.7 1.1 1.1 1.6.7.8 1.7 1.4 2.8 1.6 1.1.2 2 .2 2.9.2.8 0 1.5.2 2.2.6 1.3.8 2.3 2.4 2.2 4.3 1-1.7.4-4.1-1.2-5.5-.6-.8-1.8-1.1-2.8-1.2zM136 77.6c-.2-1.5-.2-3.1.1-4.7.3-1.6.8-3.2 1.1-4.9-1 1.2-1.8 2.5-2.4 4-1-2-1.1-4.3-.3-6.2.4-1 1.3-1.9 1.9-3.3.3-.7.5-1.5.4-2.4-.1-.9-.7-1.7-1.3-2.2-1.2-1-2.5-1.4-3.4-2-.9-.5-1.7-1.4-2.3-2.4-1.1-2-1.1-4.6.1-6.9-1.9 1.7-2.7 4.9-1.6 7.6.5 1.3 1.5 2.5 2.7 3.3 1.2.8 2.4 1.2 3.1 1.9.7.6.9 1.3.5 2.3-.4 1-1.2 2.1-1.7 3.5-.8 2.5 0 5.3 1.6 7 0 .1-.1.2-.1.3-.6 1.7-.9 3.5-.6 5.4.3 1.8 1.2 3.7 2.7 4.9 1.5 1.2 3.6 1.7 5.2.9-1.7-.2-3.1-1-4.1-2.1-.8-1.1-1.4-2.5-1.6-4zm11.1-8.3c.8 1.5.8 3.2.2 4.5-.3.6-.7 1.2-1.3 1.6-.6.4-1.1.7-1.9.9-.7.2-1.6.3-2.6.8s-1.8 1.4-2 2.4c-.3 1-.1 2.2.5 2.9.6.8 1.5 1.3 2.4 1.3-.8-.4-1.3-1.1-1.5-1.7-.2-.7-.2-1.4.1-1.9.3-.6.7-1 1.3-1.2.6-.2 1.4-.3 2.3-.6.9-.2 1.9-.7 2.6-1.4.7-.7 1.3-1.6 1.5-2.5.6-2.1-.2-4.1-1.6-5.1zM142.6 55c2.1.4 3.8 1.5 4.9 3 1.1 1.5 1.4 3.3 1.1 5.1-.2.9-.5 1.7-1 2.4s-1.2 1.4-2 2c-1.5 1.2-3.5 2.5-4.4 4.4 1.6-1.4 3.5-2 5.3-3.1.9-.5 1.8-1.2 2.6-2.1.8-.9 1.2-2 1.5-3.2s.2-2.3-.1-3.5c-.3-1.1-.9-2.2-1.7-3-1.7-1.7-4.1-2.5-6.2-2zm7.6 25c-.1-1.5.3-3.1.9-4.7.6-1.6 1.2-3.4 1.3-5.3 0-1-.1-1.9-.5-2.8-.4-.9-1-1.7-1.9-2.1 1.1 1.5 1.1 3.2.8 4.7-.3 1.6-1.1 3.1-1.7 4.8-.6 1.7-1.1 3.7-.6 5.6.3 1 .8 1.9 1.6 2.5.7.6 1.7 1 2.6.9-1.5-.5-2.3-2.2-2.5-3.6zm-13.4-41.3c-.6.1-1.1.3-1.6.7 2.2-.5 4.3.4 5.7 1.8s2 3.3 1.9 5.3c0 1-.2 2-.6 2.9-.3 1-.9 1.8-1.4 2.8-.6 1-1.1 2.1-1.3 3.3-.1 1.2.2 2.5 1.1 3.2-.6-1-.5-2.1-.2-3 .3-1 .9-1.8 1.6-2.6.7-.8 1.4-1.8 1.9-3 .5-1.1.7-2.3.8-3.5 0-1.2-.2-2.3-.6-3.5 1 .4 1.7 1 2.2 1.8.6.8 1 1.6 1.2 2.5.2.9.2 1.9.2 3s-.2 2.1-.3 3.3c.8-.8 1.4-1.9 1.8-3 .4-1.1.5-2.4.2-3.7-.3-1.3-1-2.4-2-3.2-1-.8-2.3-1.1-3.4-.8-.5-1.1-1.3-2.2-2.3-2.9-1-.7-2.2-1.2-3.3-1.3-.4-.3-1-.3-1.6-.1zm-9.5-.2-.2-2.3c-.1-.8-.2-1.6-.3-2.5-.6.7-1 1.5-1.2 2.3-.2.8-.3 1.7-.2 2.6s.3 1.7.7 2.5c.4.8.9 1.5 1.6 2.1 0-.9 0-1.7-.1-2.5l-.3-2.2zm-28-18.1c-.7.8-.9 2.1-.6 3.2.3 1.1 1 2.2 2 2.9.5.3 1.1.6 1.7.7.6.1 1.1 0 1.6 0s.8 0 1.2.1c.4.1.8.4 1 .9.3-.5 0-1.2-.4-1.7s-1.1-.8-1.6-.9c-.5-.1-1-.2-1.4-.3-.4-.1-.7-.3-1-.5-.7-.4-1.2-1-1.7-1.8-.4-.7-.7-1.6-.8-2.6z" fill="#080808" stroke-width="none" opacity="1" stroke="none"></path></g><g id="svga-group-glasses-single-move" transform="matrix(1,0,0,1,0,0)"><g id="svga-group-glasses-single"><path id="SvgjsPath8227" d="M67 81.67c-1.63 3.03-1.35 9.4 2.14 14.91 3.45 5.46 12.82 5.8 18.41 3.12 5.61-2.69 7.83-8.11 8.08-12.16.26-4.08-3.21-6.41-5.12-7.12-1.92-.72-12.68-2.15-17.58-1.44-4.89.72-5.93 2.69-5.93 2.69z" fill="url(#SvgjsLinearGradient8228)" opacity="1"></path><path id="SvgjsPath8231" d="M133.34 81.67c1.63 3.03 1.35 9.4-2.14 14.91-3.45 5.46-12.82 5.8-18.41 3.12-5.61-2.69-7.83-8.11-8.08-12.16-.26-4.08 3.21-6.41 5.12-7.12 1.92-.72 12.68-2.15 17.58-1.44 4.89.72 5.93 2.69 5.93 2.69z" fill="url(#SvgjsLinearGradient8232)" opacity="1"></path><path id="SvgjsPath8235" d="M120.31 102.38c-4.52 0-8.75-1.41-11.63-3.88-4.48-3.83-5.32-8.51-5.72-10.78-.1-.53-.17-.96-.27-1.22-.53-1.47-1.17-2.21-1.89-2.21h-1.26c-.72 0-1.36.75-1.89 2.21-.09.26-.17.68-.27 1.22-.4 2.26-1.24 6.94-5.72 10.78-2.88 2.47-7.12 3.88-11.63 3.88-2.94 0-5.77-.63-7.78-1.72-5.35-2.91-6.9-9.22-7.32-11.81-.54-3.3-1.89-3.93-2.3-4.04l-.19-5.72c.37-.01 1.49-.05 2.47-.3.06-.01 6.18-1.49 12.16-1.49.99 0 1.92.04 2.77.12 5.64.55 10.17 1.6 13.48 2.37l.73.17c2.3.53 3.91.61 4.67.61.41 0 .63-.02.63-.02h1.64s.21.02.61.02c.76 0 2.38-.08 4.67-.61l.73-.17c3.31-.77 7.85-1.83 13.48-2.37.85-.08 1.78-.12 2.77-.12 5.98 0 12.1 1.48 12.16 1.49.99.25 2.1.29 2.47.3l-.19 5.72c-.41.12-1.76.75-2.3 4.04-.42 2.59-1.97 8.9-7.32 11.81-1.98 1.1-4.82 1.72-7.76 1.72zm2.83-22.83c-.8 0-1.59.02-2.34.05-1.39.06-7.17.47-10.13 1.47-2.96 1-4.95 2.95-5.18 5.08-.27 2.45.53 5.53 2.14 8.21 1.71 2.85 3.96 4.64 6.88 5.49 1.8.52 3.5.76 5.35.76 1.53 0 3.16-.17 4.98-.51 3.23-.62 5.67-2.92 7.25-6.85 1.4-3.49 1.77-8.77-.09-11.21-1.27-1.67-4.17-2.49-8.86-2.49zm-45.94 0c-4.69 0-7.59.81-8.87 2.48-1.86 2.43-1.49 7.72-.09 11.21 1.58 3.94 4.02 6.24 7.25 6.85 1.82.35 3.44.51 4.98.51 1.85 0 3.55-.24 5.35-.76 2.93-.85 5.18-2.64 6.88-5.49 1.61-2.69 2.41-5.76 2.14-8.21-.24-2.13-2.22-4.08-5.18-5.08-2.96-1-8.74-1.41-10.13-1.47-.74-.01-1.53-.04-2.33-.04z" fill="#270404" stroke-width="none" opacity="1" stroke="none"></path><path id="SvgjsPath8236" d="M123.27 77.43c5.96 0 12.06 1.48 12.12 1.49.91.23 1.91.28 2.38.3l-.18 5.5c-.52.19-1.79.98-2.3 4.12-.42 2.58-1.96 8.83-7.25 11.72-1.99 1.08-4.8 1.7-7.71 1.7-4.49 0-8.69-1.4-11.55-3.85-4.45-3.81-5.28-8.46-5.68-10.71-.1-.56-.17-.97-.27-1.24-.56-1.55-1.22-2.3-2.02-2.3h-1.26c-.8 0-1.46.75-2.02 2.3-.1.27-.17.68-.27 1.24-.4 2.25-1.23 6.9-5.68 10.71-2.86 2.45-7.07 3.85-11.55 3.85-2.92 0-5.73-.62-7.71-1.7-5.3-2.89-6.83-9.15-7.25-11.72-.51-3.14-1.78-3.92-2.3-4.12l-.18-5.5c.46-.01 1.47-.07 2.38-.3.06-.01 6.16-1.49 12.12-1.49.98 0 1.91.04 2.76.12 5.63.55 10.16 1.6 13.46 2.37l.73.17c2.31.53 3.94.61 4.7.61.4 0 .61-.02.62-.02h1.63s.22.02.64.02c.77 0 2.39-.08 4.7-.61l.73-.17c3.3-.77 7.83-1.83 13.46-2.37.84-.08 1.76-.12 2.75-.12m-3.4 23.31c1.54 0 3.18-.17 5-.52 3.28-.62 5.75-2.95 7.35-6.93 1.41-3.52 1.78-8.86-.1-11.33-1.3-1.7-4.24-2.53-8.97-2.53-.71 0-1.48.02-2.35.05-1.39.06-7.19.48-10.17 1.48-3.01 1.01-5.03 3-5.27 5.18-.27 2.48.54 5.58 2.16 8.29 1.72 2.88 4 4.69 6.96 5.54 1.81.52 3.52.77 5.39.77m-39.39 0c1.86 0 3.57-.24 5.39-.77 2.96-.85 5.23-2.66 6.96-5.54 1.62-2.71 2.43-5.81 2.16-8.29-.24-2.18-2.26-4.17-5.27-5.18-2.97-1-8.77-1.42-10.17-1.48-.87-.04-1.64-.05-2.35-.05-4.73 0-7.67.83-8.97 2.53-1.89 2.47-1.52 7.81-.1 11.33 1.6 3.98 4.07 6.31 7.35 6.93 1.82.35 3.45.52 5 .52m42.79-23.57c-.95 0-1.88.04-2.78.13-6.07.59-10.85 1.77-14.23 2.55-2.25.52-3.84.61-4.64.61-.4 0-.61-.02-.61-.02h-1.66s-.21.02-.61.02c-.81 0-2.39-.09-4.65-.61-3.38-.78-8.16-1.96-14.23-2.55-.9-.09-1.84-.12-2.78-.13-5.44 0-11.18 1.25-12.19 1.5-1.18.29-2.57.29-2.57.29l.2 5.94s1.69.19 2.3 3.96c.61 3.74 2.54 9.26 7.39 11.9 2.04 1.11 4.85 1.74 7.84 1.74 4.1 0 8.53-1.18 11.72-3.91 5.55-4.75 5.53-10.69 6.02-12.05.49-1.35 1.08-2.13 1.77-2.13h1.26c.69 0 1.28.78 1.77 2.13.49 1.35.47 7.3 6.02 12.05 3.19 2.73 7.62 3.91 11.72 3.91 2.99 0 5.8-.62 7.84-1.74 4.85-2.64 6.78-8.16 7.39-11.9.61-3.77 2.3-3.96 2.3-3.96l.2-5.94s-1.39 0-2.57-.29c-1.04-.25-6.78-1.5-12.22-1.5zm-3.4 23.32c-1.99 0-3.69-.29-5.31-.76-2.83-.82-5.06-2.51-6.81-5.43-1.76-2.93-2.37-5.93-2.13-8.14.24-2.21 2.36-4.05 5.09-4.97 2.74-.92 8.21-1.38 10.09-1.46.75-.03 1.54-.05 2.33-.05 3.52 0 7.23.43 8.77 2.44 1.88 2.45 1.41 7.77.07 11.09-1.33 3.3-3.47 6.07-7.16 6.78-1.85.34-3.47.5-4.94.5zm-39.4 0c-1.47 0-3.09-.16-4.95-.51-3.69-.7-5.83-3.48-7.16-6.78-1.33-3.32-1.8-8.64.07-11.09 1.54-2 5.25-2.43 8.77-2.44.8 0 1.58.02 2.33.05 1.88.08 7.35.54 10.09 1.46 2.74.92 4.85 2.76 5.09 4.97.24 2.2-.37 5.2-2.13 8.14-1.75 2.92-3.98 4.61-6.81 5.43-1.61.48-3.31.77-5.3.77z" fill="#080000" stroke-width="none" opacity="1" stroke="none"></path></g></g></g></g></g><rect id="svga-credit-rect" width="200" height="15" x="0" y="185" fill="#ecf0f1" opacity="0.5" style="display: none;"></rect><text id="svga-credit-text" font-family="Avenir Next, Roboto, Helvetica, Arial, sans-serif" font-size="10px" text-anchor="start" font-weight="400" size="10px" anchor="start" weight="400" fill="#333333" x="33.402061462402344" y="182.71133995056152" style="display: none;"><tspan id="SvgjsTspan5363" dy="13" x="33.402061462402344">Created on AvatarMaker.com</tspan></text></g><defs id="SvgjsDefs5310"><linearGradient id="SvgjsLinearGradient8121" x1="80.8483" y1="78.7842" x2="80.8483" y2="101.3287" gradientUnits="userSpaceOnUse" class="svga-on-canvas-glasses-gradient-single-0-null"><stop id="SvgjsStop8122" stop-opacity="1" stop-color="#9bc2cf" offset="0" ></stop><stop id="SvgjsStop8123" stop-opacity="0" stop-color="#6086c4" offset="1" ></stop></linearGradient><linearGradient id="SvgjsLinearGradient8125" x1="-19.4949" y1="78.7842" x2="-19.4949" y2="101.3287" gradientTransform="matrix(-1 0 0 1 100 0)" gradientUnits="userSpaceOnUse" class="svga-on-canvas-glasses-gradient-single-1-null"><stop id="SvgjsStop8126" stop-opacity="1" stop-color="#9bc2cf" offset="0" ></stop><stop id="SvgjsStop8127" stop-opacity="0" stop-color="#6086c4" offset="1" ></stop></linearGradient><linearGradient id="SvgjsLinearGradient8169" x1="79.4739" y1="121.3709" x2="79.4739" y2="101.6175" gradientTransform="matrix(1 0 0 -1 0 202)" gradientUnits="userSpaceOnUse" class="svga-on-canvas-glasses-gradient-single-0-null"><stop id="SvgjsStop8170" stop-opacity="1" stop-color="#bfeaf2" offset="0" ></stop><stop id="SvgjsStop8171" stop-opacity="0.649" stop-color="#a1cae3" offset="0.351" ></stop><stop id="SvgjsStop8172" stop-opacity="0" stop-color="#6086c4" offset="1" ></stop></linearGradient><linearGradient id="SvgjsLinearGradient8174" x1="-1738.6592" y1="121.1959" x2="-1738.6592" y2="101.7599" gradientTransform="matrix(-1 0 0 -1 -1618 202)" gradientUnits="userSpaceOnUse" class="svga-on-canvas-glasses-gradient-single-1-null"><stop id="SvgjsStop8175" stop-opacity="1" stop-color="#bfeaf2" offset="0" ></stop><stop id="SvgjsStop8176" stop-opacity="0.649" stop-color="#a1cae3" offset="0.351" ></stop><stop id="SvgjsStop8177" stop-opacity="0" stop-color="#6086c4" offset="1" ></stop></linearGradient><linearGradient id="SvgjsLinearGradient8228" x1="80.8483" y1="78.7842" x2="80.8483" y2="101.3287" gradientUnits="userSpaceOnUse" class="svga-on-canvas-glasses-gradient-single-0-null"><stop id="SvgjsStop8229" stop-opacity="1" stop-color="#9bc2cf" offset="0" ></stop><stop id="SvgjsStop8230" stop-opacity="0" stop-color="#6086c4" offset="1" ></stop></linearGradient><linearGradient id="SvgjsLinearGradient8232" x1="-19.4949" y1="78.7842" x2="-19.4949" y2="101.3287" gradientTransform="matrix(-1 0 0 1 100 0)" gradientUnits="userSpaceOnUse" class="svga-on-canvas-glasses-gradient-single-1-null"><stop id="SvgjsStop8233" stop-opacity="1" stop-color="#9bc2cf" offset="0" ></stop><stop id="SvgjsStop8234" stop-opacity="0" stop-color="#6086c4" offset="1" ></stop></linearGradient></defs></svg>