<svg xmlns="http://www.w3.org/2000/svg" viewBox="0 0 500 500"><g id="freepik--background-complete--inject-6"><path d="M383.38,39.58a2.91,2.91,0,1,1-2.91-2.91A2.91,2.91,0,0,1,383.38,39.58Z" style="fill:#e0e0e0"></path><path d="M398.68,235.86s0-.14,0-.41,0-.68,0-1.19c0-1.07,0-2.62-.05-4.6,0-4,0-9.86-.07-17.13,0-14.59-.06-35-.09-58.19l.06.17L386,139.42l-5.59-6.77-.06-.07v-.09c0-25.9.06-49,.08-65.59,0-8.28.06-15,.08-19.59,0-2.28,0-4.06.05-5.3,0-.58,0-1,0-1.37s0-.47,0-.47,0,.16,0,.47,0,.79,0,1.37c0,1.24,0,3,0,5.3,0,4.63,0,11.31.08,19.59,0,16.62.05,39.69.09,65.59l-.06-.17,5.59,6.77,12.46,15.09.06.07v.09c0,23.23-.07,43.6-.09,58.19,0,7.27-.06,13.09-.08,17.13,0,2,0,3.53,0,4.6,0,.51,0,.9,0,1.19S398.68,235.86,398.68,235.86Z" style="fill:#e0e0e0"></path><path d="M438.78,225.53a16.36,16.36,0,0,1-3,3.13l.77,3.92-6.05,2.69-2.39-3.21a16.34,16.34,0,0,1-4.31.11l-2.23,3.32-6.17-2.38.57-4a16.3,16.3,0,0,1-3.12-3L409,227l-2.69-6,3.21-2.39a15.92,15.92,0,0,1-.11-4.31L406.05,212l2.38-6.17,4,.58a16.06,16.06,0,0,1,3-3.13l-.77-3.92,6.05-2.69,2.39,3.21a16.77,16.77,0,0,1,4.31-.11l2.23-3.32,6.17,2.38-.58,4a16.36,16.36,0,0,1,3.13,3l3.92-.77,2.68,6-3.2,2.39a16.77,16.77,0,0,1,.11,4.31l3.32,2.23-2.38,6.17-4-.58Zm-6.68-6.74a7.1,7.1,0,1,0-9.18,4.07A7.1,7.1,0,0,0,432.1,218.79Z" style="fill:none"></path><path d="M432.1,218.79a5.44,5.44,0,0,1-.77,1.58,7,7,0,0,1-3.84,2.81,7.19,7.19,0,0,1-3.33.2,7.3,7.3,0,0,1-3.46-1.65,6.58,6.58,0,0,1-1.37-1.59,6.88,6.88,0,0,1-.89-2,7.23,7.23,0,0,1,3.1-8.05,6.85,6.85,0,0,1,2-.89,6.77,6.77,0,0,1,2.08-.25,7.16,7.16,0,0,1,7,8.14,5.27,5.27,0,0,1-.49,1.69c-.05,0,.21-.6.34-1.71a7,7,0,0,0-6.83-7.75,6.4,6.4,0,0,0-2,.26,6.31,6.31,0,0,0-1.88.84,6.89,6.89,0,0,0-2.94,7.61,6.51,6.51,0,0,0,.84,1.9,6.69,6.69,0,0,0,1.28,1.51,6.95,6.95,0,0,0,6.47,1.46,7.09,7.09,0,0,0,3.79-2.63C431.86,219.37,432.05,218.77,432.1,218.79Z" style="fill:#e0e0e0"></path><path d="M438.78,225.53l.25,0,.75.09,3,.4-.07,0L445,219.9l0,.12-3.33-2.21-.06,0v-.07a16.33,16.33,0,0,0-.12-4.28l0-.08.07-.05,3.2-2.4-.05.18-2.7-6,.18.1-3.92.78-.1,0-.06-.08a16.16,16.16,0,0,0-3.1-2.94l-.09-.06,0-.11c.18-1.22.37-2.58.57-3.95l.12.19-6.18-2.37.22-.07-2.22,3.32-.07.1-.11,0a16.15,16.15,0,0,0-4.26.12h-.12l-.07-.09-2.39-3.21.24.07-6.05,2.68.12-.22c.24,1.24.51,2.57.77,3.92l0,.12-.1.08a16.29,16.29,0,0,0-2.94,3.08h0c-.08,0,.2-.08-.19.09h-.12l-.13,0-.25,0-.49-.07-1-.14-2-.29.22-.13c-.8,2.09-1.6,4.15-2.38,6.18l-.08-.24,3.32,2.22.1.07v.12a16,16,0,0,0,.1,4.26l0,.12-.09.07-3.21,2.39.06-.24c.91,2.07,1.81,4.09,2.68,6.05l-.21-.1,3.92-.77.11,0,.07.08a15.94,15.94,0,0,0,3.09,2.95l.08.06v.11c-.2,1.35-.4,2.67-.59,3.95l-.1-.18,6.17,2.39-.19.06,2.24-3.31.05-.08h.08a16.39,16.39,0,0,0,4.28-.09l.08,0,.05.07c.86,1.17,1.64,2.22,2.38,3.21l-.15,0,6.06-2.66-.05.1c-.3-1.57-.54-2.86-.75-3.93v0l0,0a17.29,17.29,0,0,0,2.34-2.25l.51-.62a2,2,0,0,1,.17-.21l-.14.23c-.11.14-.26.36-.49.64a15.62,15.62,0,0,1-2.3,2.31l0-.06.8,3.91v.08l-.06,0-6,2.71-.09,0-.06-.07c-.74-1-1.52-2-2.4-3.2l.13.05a16,16,0,0,1-4.35.12l.14-.06-2.22,3.32-.07.11-.11-.05-6.18-2.36-.13-.05,0-.14c.18-1.28.37-2.6.57-4l.07.16a16.27,16.27,0,0,1-3.16-3l.18.07-3.93.77-.14,0-.07-.13L406.1,221l-.07-.14.13-.09,3.2-2.4-.07.19a16.28,16.28,0,0,1-.12-4.36l.09.18-3.32-2.22-.14-.09.06-.15c.78-2,1.58-4.09,2.38-6.18l.06-.15.16,0,2,.28,1,.15.5.07.25,0,.13,0h.12l-.2.09h0a16.8,16.8,0,0,1,3-3.16l-.07.2c-.26-1.35-.53-2.68-.77-3.92l0-.16.15-.07,6.05-2.68.14-.06.1.12,2.38,3.21-.18-.07a16.46,16.46,0,0,1,4.36-.11l-.18.08,2.23-3.31.08-.13.14.06,6.18,2.38.13.05,0,.15c-.2,1.38-.4,2.73-.58,3.95l-.07-.16a16.48,16.48,0,0,1,3.15,3l-.17-.06,3.93-.77.13,0,.05.11c.93,2.13,1.83,4.15,2.67,6.06l0,.1-.09.07-3.21,2.38.05-.12a15.91,15.91,0,0,1,.09,4.34l-.05-.11,3.31,2.24.07.05,0,.07c-1,2.51-1.79,4.59-2.41,6.16l0,.05h0l-2.93-.47-.76-.12Z" style="fill:#e0e0e0"></path><path d="M470,168.75a25.25,25.25,0,0,1-4.69,4.93l1.22,6.19L457,184.1,453.22,179a25.33,25.33,0,0,1-6.8.17l-3.52,5.24-9.74-3.75.92-6.24a25.59,25.59,0,0,1-4.93-4.7L423,171l-4.24-9.54,5.06-3.77a25.75,25.75,0,0,1-.17-6.8l-5.24-3.51,3.76-9.74,6.24.91a25.54,25.54,0,0,1,4.69-4.93l-1.22-6.19,9.54-4.23,3.77,5.06a25.41,25.41,0,0,1,6.81-.17l3.51-5.24,9.74,3.75-.91,6.24a25.58,25.58,0,0,1,4.93,4.7l6.19-1.23,4.23,9.55-5.06,3.77a25.75,25.75,0,0,1,.17,6.8l5.24,3.51-3.76,9.74-6.24-.91Zm-10.54-10.64A11.2,11.2,0,1,0,445,164.53,11.2,11.2,0,0,0,459.46,158.11Z" style="fill:#ebebeb;fill-rule:evenodd"></path><circle cx="92.31" cy="204.4" r="3" style="fill:#e0e0e0"></circle><path d="M92.31,299.59c-.14,0-.26-20.82-.26-46.5s.12-46.51.26-46.51.26,20.81.26,46.51S92.46,299.59,92.31,299.59Z" style="fill:#e0e0e0"></path><path d="M204.47,60a3,3,0,1,1-3-3A3,3,0,0,1,204.47,60Z" style="fill:#e0e0e0"></path><path d="M201.47,251.14c-.15,0-.26-42.3-.26-94.46s.11-94.48.26-94.48.26,42.29.26,94.48S201.61,251.14,201.47,251.14Z" style="fill:#e0e0e0"></path><path d="M44.24,172.05A3.21,3.21,0,1,1,41,168.84,3.21,3.21,0,0,1,44.24,172.05Z" style="fill:#e0e0e0"></path><path d="M41.22,172.05s0,.17,0,.5,0,.84,0,1.48c0,1.32,0,3.24,0,5.73,0,5,0,12.33.07,21.51,0,18.41.05,44.36.09,74.59v.08l0,.07c-4.55,6.31-9.32,12.91-14.21,19.7l.05-.15v26c0,22.77,0,44.39,0,63.7l-.06-.15L44.41,406l0,.05v.08c0,19.26-.07,35.09-.09,46.12,0,5.51,0,9.81,0,12.75,0,1.46,0,2.57,0,3.34s0,1.14,0,1.14,0-.39,0-1.14,0-1.88,0-3.34c0-2.94,0-7.24-.06-12.75,0-11,0-26.86-.09-46.12l0,.13L26.82,385.41l-.06-.07v-.08c0-19.31,0-40.93,0-63.7V295.47l.05-.06L41,275.72l-.05.14c0-30.23.07-56.18.09-74.59,0-9.18.06-16.48.07-21.51,0-2.49,0-4.41,0-5.73,0-.64,0-1.13,0-1.48S41.22,172.05,41.22,172.05Z" style="fill:#e0e0e0"></path><circle cx="269.83" cy="127.65" r="3.61" style="fill:#e0e0e0"></circle><circle cx="250" cy="334.37" r="3.61" style="fill:#e0e0e0"></circle><path d="M270.36,127.65a2,2,0,0,1,0,.32c0,.23,0,.54,0,.93,0,.85,0,2.06,0,3.64,0,3.19,0,7.82.07,13.67,0,11.74.05,28.34.09,47.88v.1l-.07.07-20.35,20.37.08-.18v11.32c0,29.42-.06,56.06-.08,75.36,0,9.62-.06,17.42-.08,22.83,0,2.68,0,4.77,0,6.21,0,.69,0,1.23,0,1.61s0,.55,0,.55,0-.18,0-.55,0-.92,0-1.61c0-1.44,0-3.53,0-6.21,0-5.41-.05-13.21-.08-22.83,0-19.3,0-45.94-.08-75.36V214.34l.08-.08c7.19-7.18,14.07-14.06,20.37-20.34l-.07.17c0-19.54.07-36.14.09-47.88,0-5.85.06-10.48.07-13.67,0-1.58,0-2.79,0-3.64,0-.39,0-.7,0-.93A2,2,0,0,1,270.36,127.65Z" style="fill:#e0e0e0"></path></g><g id="freepik--Chair--inject-6"><path d="M161.83,332.4c-3.91-6.71-8.1-13.45-14.26-19-15.62-14.08-42.44-18.26-65.23-13.21C64.75,304.09,48.14,314,43.53,328c-2.09,6.31-1.62,13-1,19.46C46.85,390,68.14,467.16,69,469l143.54-.58C204.07,421.42,186.94,375.46,161.83,332.4Z" style="fill:#455a64"></path><path d="M212.51,468.37s-.09-.37-.23-1.1-.37-1.8-.65-3.21-.6-3.16-1-5.22-1-4.43-1.55-7.1a414.74,414.74,0,0,0-12.82-44.49,431.35,431.35,0,0,0-27.86-62.7L166,340.26,163.58,336c-1.63-2.88-3.29-5.78-5.09-8.64-3.58-5.71-7.78-11.3-13.34-15.6a23.08,23.08,0,0,0-2.11-1.57c-.73-.49-1.43-1-2.18-1.49-1.54-.87-3-1.86-4.64-2.6l-2.4-1.18-2.49-1-1.25-.51-1.27-.44-2.57-.88a85.05,85.05,0,0,0-21.67-3.58,92.26,92.26,0,0,0-21.91,1.94,74.21,74.21,0,0,0-20,7.41,50,50,0,0,0-8.58,5.86,38,38,0,0,0-6.86,7.49c-.45.72-.93,1.4-1.34,2.13s-.76,1.48-1.13,2.22-.61,1.55-.91,2.32a24.47,24.47,0,0,0-.69,2.36,36.94,36.94,0,0,0-.89,9.69c.09,3.22.38,6.4.76,9.52s.69,6.22,1.18,9.24c.85,6.07,1.87,11.93,2.89,17.58,2.06,11.32,4.33,21.79,6.45,31.34,4.29,19.08,8.2,34.43,11,45,1.38,5.29,2.49,9.39,3.25,12.17.39,1.38.69,2.43.89,3.15S69,469,69,469s-.13-.35-.37-1.05-.53-1.77-.94-3.14c-.79-2.77-1.94-6.86-3.35-12.15-2.82-10.57-6.79-25.9-11.12-45-2.14-9.55-4.43-20-6.51-31.34-1-5.66-2.06-11.52-2.92-17.59-.49-3-.8-6.13-1.19-9.26s-.69-6.31-.78-9.56a38,38,0,0,1,.89-9.81,22.89,22.89,0,0,1,.71-2.41c.3-.79.61-1.57.92-2.36L45.46,323c.42-.74.9-1.44,1.35-2.17a39,39,0,0,1,6.95-7.59,50.42,50.42,0,0,1,8.66-5.93,74.7,74.7,0,0,1,20.13-7.46,92.24,92.24,0,0,1,22-2,85.35,85.35,0,0,1,21.82,3.61l2.58.88,1.29.45,1.25.52,2.51,1,2.42,1.19c1.64.75,3.13,1.75,4.68,2.63.76.47,1.47,1,2.21,1.5a23.57,23.57,0,0,1,2.13,1.59c5.61,4.35,9.85,10,13.44,15.73,1.8,2.88,3.47,5.79,5.1,8.67l2.44,4.3,2.33,4.29a427.86,427.86,0,0,1,27.79,62.81,401.94,401.94,0,0,1,12.66,44.56l1.51,7.12c.42,2.06.73,3.82,1,5.23s.45,2.49.59,3.22S212.51,468.37,212.51,468.37Z" style="fill:#263238"></path><path d="M49.33,318s0,.14,0,.41-.1.67-.17,1.17c-.14,1-.3,2.55-.43,4.51a78.57,78.57,0,0,0,1.21,16.61c2.42,13.9,5.38,33.18,9.71,54.26,2.18,10.55,4.56,20.53,7.08,29.5s5.16,17,7.57,23.58,4.69,11.87,6.3,15.47l1.88,4.13.48,1.09a2.19,2.19,0,0,1,.14.37,201.81,201.81,0,0,1-9.14-20.93c-2.46-6.62-5.16-14.59-7.69-23.58s-5-19-7.13-29.52c-4.33-21.11-7.24-40.39-9.56-54.31a75.91,75.91,0,0,1-1-16.68A39.62,39.62,0,0,1,49.33,318Z" style="fill:#263238"></path><path d="M67.91,351.92c0,.09-1,.31-2.55.87a24.32,24.32,0,0,0-5.7,3,29.73,29.73,0,0,0-6.32,6.56A9,9,0,0,1,54.7,360a20.33,20.33,0,0,1,4.66-4.62,20.57,20.57,0,0,1,5.88-2.92A9.18,9.18,0,0,1,67.91,351.92Z" style="fill:#263238"></path><path d="M62.26,361.5c0,.16-1.9.1-4.13.62s-3.92,1.38-4,1.24A8.41,8.41,0,0,1,58,361.61,8.45,8.45,0,0,1,62.26,361.5Z" style="fill:#263238"></path><path d="M58.18,409.94c-.06,0,0-.28.18-.62a2.49,2.49,0,0,1,1.22-.93,2.45,2.45,0,0,1,1.53-.05c.38.12.56.3.53.36s-.91-.19-1.89.18S58.31,410,58.18,409.94Z" style="fill:#263238"></path><path d="M60.11,414c-.14,0-.06-1,.87-1.76s1.94-.6,1.91-.46-.83.25-1.58.87S60.26,414.06,60.11,414Z" style="fill:#263238"></path></g><g id="freepik--Character--inject-6"><path d="M245.41,429.59s-3.2-78.48-6.16-92.08c-3.75-17.3-18.32-27.75-18.32-27.75l-5.58,135,5.8,3.47,3.42,1.8c1.53,5.74-1.64,7.14,14.06,11.18,1.26.32,26.33,4.28,26.33,4.28L267.42,440Z" style="fill:#b78876"></path><path d="M288.2,464.57s-9.06.62-12.76,2.12c-4,1.62-9,.67-12.34-1.5a35.31,35.31,0,0,1-5.34-4.17l-12.36.06a14.84,14.84,0,0,1-2.73-15.25A16.58,16.58,0,0,1,245.4,441c1.44-1.62,2.09-2.58,6.08-3.36l16.38,2.49s22.7-2.1,26.78-.28c0,0,5.14,2.91,6.74,4.14.6.46,2.52,6.21-1.11,9.3,0,0,3.27,2.49,1.58,4.82l-.82,1s2.23,2.75,1.14,4S291.48,470.25,288,469s-1.06-4.18.45-4.8" style="fill:#b78876"></path><path d="M297.73,448.29a9.55,9.55,0,0,0-1.19.45c-.76.31-1.87.75-3.26,1.22q-1,.36-2.28.72c-.82.24-1.73.44-2.66.76a5.71,5.71,0,0,0-2.63,1.67,3.29,3.29,0,0,0-.65,3.26,2.62,2.62,0,0,0,1.23,1.27,4.61,4.61,0,0,0,1.63.41,13.38,13.38,0,0,0,3.08-.23,26.9,26.9,0,0,0,5-1.41c1.38-.52,2.46-1,3.21-1.34a7.55,7.55,0,0,0,1.15-.58,9,9,0,0,0-1.21.43c-.76.29-1.87.74-3.25,1.22a28.34,28.34,0,0,1-4.95,1.32,14,14,0,0,1-3,.2,4.43,4.43,0,0,1-1.48-.38,2.21,2.21,0,0,1-1-1.07,2.91,2.91,0,0,1,.59-2.85,5.32,5.32,0,0,1,2.44-1.56c.9-.33,1.81-.54,2.63-.8s1.6-.51,2.29-.77c1.38-.51,2.48-1,3.22-1.34A8.16,8.16,0,0,0,297.73,448.29Z" style="fill:#aa6550"></path><path d="M296.71,441.31a7.16,7.16,0,0,0-1.18.46c-.76.31-1.86.75-3.23,1.24s-3,1-4.9,1.52a6.8,6.8,0,0,0-2.84,1.22,2.38,2.38,0,0,0-.81,1.5A3.13,3.13,0,0,0,284,449a4.16,4.16,0,0,0,2.58,2.1,6.81,6.81,0,0,0,3.09.18,30.28,30.28,0,0,0,4.94-1.54l3.24-1.22a9.15,9.15,0,0,0,1.18-.49,7.19,7.19,0,0,0-1.23.35l-3.29,1.09a31.69,31.69,0,0,1-4.89,1.44,6.33,6.33,0,0,1-2.92-.19,3.77,3.77,0,0,1-2.33-1.9,2.28,2.28,0,0,1,.42-2.76,6.55,6.55,0,0,1,2.68-1.15,50.45,50.45,0,0,0,4.9-1.61c1.37-.53,2.45-1,3.19-1.37A7.57,7.57,0,0,0,296.71,441.31Z" style="fill:#aa6550"></path><path d="M292.09,443.4a11.65,11.65,0,0,0,.4-1.95,13.35,13.35,0,0,0,.45-1.94,4.77,4.77,0,0,0-.85,3.89Z" style="fill:#aa6550"></path><path d="M257.93,444.41l8.56-3.5s23.73-11.69,24.15-11.1,1.72.51,1.49,3.44-14.06,9.11-14.48,10.13.42,6.12-4.66,9.9-8.8,3.93-8.8,3.93" style="fill:#b78876"></path><path d="M264.19,457.21s.07,0,.2,0l.6-.07a12.94,12.94,0,0,0,2.23-.58,21.91,21.91,0,0,0,7.23-4.37,10.44,10.44,0,0,0,2.84-5.11,24.15,24.15,0,0,0,.44-3.23,1.87,1.87,0,0,1,.07-.37.72.72,0,0,1,.23-.24c.21-.16.45-.32.69-.47.48-.29,1-.58,1.5-.87,2-1.15,4.24-2.32,6.45-3.65a38.7,38.7,0,0,0,3.28-2.17,12.76,12.76,0,0,0,1.54-1.33,4.61,4.61,0,0,0,.64-.85,1.64,1.64,0,0,0,.18-.54,3.32,3.32,0,0,0,0-.53,3.73,3.73,0,0,0-.41-2.08,2.53,2.53,0,0,0-.78-.75,1.35,1.35,0,0,1-.33-.28l-.09-.08a.33.33,0,0,0-.17-.05l-.17,0-.26.07c-1.29.42-2.46,1-3.65,1.49-2.34,1-4.59,2.1-6.72,3.11-4.26,2-8.08,3.9-11.28,5.48-.8.39-1.55.8-2.28,1.12l-2.09.88-3.35,1.4-2.11.91-.55.25-.18.09s.07,0,.2-.06l.56-.2,2.14-.84,3.38-1.35,2.11-.84c.74-.33,1.49-.72,2.3-1.1l11.31-5.4c2.14-1,4.38-2.05,6.72-3.09,1.18-.51,2.38-1.06,3.61-1.47l.22-.05h.08s0,0,0,0,0-.06,0-.1l0,0c-.27.18-.07.06-.12.1l0,0a1.55,1.55,0,0,0,.43.36,2.21,2.21,0,0,1,.66.63,3.47,3.47,0,0,1,.35,1.86,1.72,1.72,0,0,1-.18.89,3.83,3.83,0,0,1-.58.76,11.31,11.31,0,0,1-1.48,1.29,37.24,37.24,0,0,1-3.25,2.15c-2.19,1.33-4.37,2.5-6.42,3.66-.52.3-1,.59-1.52.9-.24.15-.48.31-.72.49a.93.93,0,0,0-.33.39,2,2,0,0,0-.09.45A24,24,0,0,1,277,447a10.18,10.18,0,0,1-2.71,5,20,20,0,0,1-3.83,2.84,20.64,20.64,0,0,1-3.26,1.58,15.38,15.38,0,0,1-2.19.65c-.25.06-.45.09-.58.11Z" style="fill:#aa6550"></path><path d="M290.64,457.78a3,3,0,0,0-.91.29,8.86,8.86,0,0,0-2.23,1.35,7.9,7.9,0,0,0-1.28,1.3,2.73,2.73,0,0,0-.66,2,2.25,2.25,0,0,0,1.64,1.69,4.31,4.31,0,0,0,2.51-.13,46.15,46.15,0,0,0,7.88-3.36,23.5,23.5,0,0,0,2.2-1.37,3.62,3.62,0,0,0,.75-.58,4.09,4.09,0,0,0-.83.45c-.53.31-1.29.75-2.26,1.25a54.84,54.84,0,0,1-7.86,3.22,3.91,3.91,0,0,1-2.28.14,1.87,1.87,0,0,1-1.38-1.37,2.41,2.41,0,0,1,.56-1.77,7.76,7.76,0,0,1,1.19-1.28A14.24,14.24,0,0,1,290.64,457.78Z" style="fill:#aa6550"></path><path d="M113.61,227.54a3.19,3.19,0,0,1-1.29-5.29c-1.62-.89-1.16-3.45.11-4.8s3.08-2.17,4.07-3.73a3.79,3.79,0,0,1-4.53-3.28,3.09,3.09,0,0,1-2-5.67c-1.73-.15-1.59-3-.14-4s3.35-.9,4.93-1.64a20.49,20.49,0,0,1,10.85-6.37l-7.08-5.27a4.13,4.13,0,0,1-1.43-1.51c-.62-1.41.49-3,1.65-4a16.66,16.66,0,0,1,8.81-3.85c1-.12,2.36,0,2.69,1,2.2-1,4.75-.93,7.18-.8,1.36.07,2.86.2,3.83,1.16a11.31,11.31,0,0,0-2.53-3.17,4.83,4.83,0,0,1-1.64-3.59c.14-1.35,1.77-2.53,2.89-1.76-1.26-.59-1.09-2.62,0-3.5a6.36,6.36,0,0,1,4-1c1,0,2.2.14,2.47,1.08.44-2.17,4.15-2.48,4.93-.41a3.37,3.37,0,0,1,4.84.38,4.32,4.32,0,0,1,6.11,2.27l-3.77-6.31c-.71-1.2-.83-3.43.55-3.29-2,0-3.12-2.7-2.15-4.43s3.21-2.39,5.18-2.14l1.72,2.49a3.92,3.92,0,0,1,6,4.37c.8-.86,2.35-.39,3,.59a5.85,5.85,0,0,1,.57,3.4c1.93-1.62,5.47.26,5.2,2.77a10.94,10.94,0,0,1,5.7-1.18,3.86,3.86,0,0,1,5-5.48,3.8,3.8,0,0,1,4.91-3.09c.61-2.3,3.63-4,5.46-2.49s.88,4.61-.28,6.78c-1.27,2.35-2.53,4.71-3.79,7.06l12.32-6.6a2.14,2.14,0,0,1,1.23-.37c.6.07,1,.62,1.55.88a15,15,0,0,0,2.44.43c2.17.67,2.14,4,.65,5.71s-3.77,2.54-5.45,4.06l5.47,1A5.59,5.59,0,0,1,221,170.3c.75-2,3.45-2.28,5.6-2.19,1.93.08,4.05.24,5.42,1.61,1.74,1.74,1.41,4.8-.05,6.78s-3.77,3.14-6,4.23c.36,1.64,2.49,2.14,4.15,1.9s3.39-.9,5-.3c2.13.8,3,3.56,5.18,4.34a8.68,8.68,0,0,1,2,.65,3.84,3.84,0,0,1,1.31,2.54c.27,1.19.54,2.37.8,3.56a4.15,4.15,0,0,1,.15,1.78c-.39,1.94-3.09,2.35-4.91,1.61s-3.39-2.19-5.34-2.47c2.57,1.28,5.29,2.69,6.72,5.18s.85,6.35-1.85,7.32-5.44-1.39-7.43-3.5-4.85-4.38-7.5-3.17" style="fill:#263238"></path><path d="M117.57,225.84c-2.08-1.54-5.61.5-5.3,3.07a7.33,7.33,0,0,0-2.75,12.66c1.62,1.36,4.83,1.41,5.17-.67a5.72,5.72,0,0,0,4,3.51,5.53,5.53,0,0,0,2.23,7.83c-3.29,2.27-2.67,8.23,1,9.77a4.51,4.51,0,1,0,8.24,3.68c.71,1.69,1.49,3.47,3,4.5s4,.85,4.76-.81a6.2,6.2,0,0,0,8.82,3.72,4,4,0,0,0,7.88,1.38l10.32.79a37.47,37.47,0,0,0,6.86.1,18.55,18.55,0,0,0,8.17-3,4.37,4.37,0,0,1,5.62-.49,16.74,16.74,0,0,0,16.17-2.38,8.26,8.26,0,0,1,2.24-1.49,7.57,7.57,0,0,1,3.08-.16,30.19,30.19,0,0,0,7.59-.43c2.14-.4,4.43-1.17,5.58-3s.25-4.93-1.92-5.09a4.66,4.66,0,0,1,1.49-3.81,2.81,2.81,0,0,1,3.82.16c.9,1.1.2,3.15-1.21,3.22,2.19,1.81,6-.14,6.31-3s-2.31-5.42-5.14-5.68a12.94,12.94,0,0,0,.7-6.22,4.6,4.6,0,0,0,6.18,1.24,8,8,0,0,0,4.8,4.12,4.76,4.76,0,0,0,5.48-2.4c.84-2-.69-4.74-2.86-4.68,1.72-2.29-.25-6.21-3.12-6.2a6.35,6.35,0,0,0-3.29-7.06,3.35,3.35,0,0,0,4.91-1.43c1.13,2.19,4.37,2,6.59.9,1.75-.83,3.46-2.09,3.18-4.61a5,5,0,0,0-1.57-3.1c-2-1.92-4.89-2.28-7.59-2.58a33,33,0,0,1-2.28-10.55c3,.35,6.27-1.62,6.9-4.59l-14.95-9.29s-34.59-5.34-35.83-5.34-73.55,37.24-73.55,37.24c-1.68,1.75-4.94,1-6.17-1.13s-.74-4.83.58-6.86a19.88,19.88,0,0,1,5.29-4.92c-2.32-.16-4.79-.37-6.5-2.05a3.68,3.68,0,0,1-1-4c.83-2,3.14-1.86,4.62-3a8.41,8.41,0,0,0,1.9-2.64" style="fill:#263238"></path><path d="M214.2,218c-.86-12.35-9.15-27.46-21.46-26.07l-38.38,10a7.24,7.24,0,0,0-6.43,7.39l4.24,82.94-9.25,4.42c-.09,0,9.58,5.38,9.49,5.4s8.88,26.11,34.25,18c5-1.61,7.31-7.13,8.28-12.8l.26,0c0-.67,8.39-7.1,8.4-7.74,0,.64-8.27-4.69-8.27-4.69l0-2.25c0-7.48,0-10.55,0-10.48s15.77-2.73,18.9-23.35C215.79,248.49,215.16,231.7,214.2,218Z" style="fill:#b78876"></path><path d="M209,232.85a2.64,2.64,0,0,1-2.53,2.69,2.54,2.54,0,0,1-2.74-2.37,2.65,2.65,0,0,1,2.53-2.68A2.52,2.52,0,0,1,209,232.85Z" style="fill:#263238"></path><path d="M210.62,226.74c-.33.34-2.34-1.12-5.18-1.1s-4.92,1.47-5.23,1.12c-.15-.15.18-.78,1.08-1.44a7.25,7.25,0,0,1,4.18-1.33,6.93,6.93,0,0,1,4.13,1.31C210.48,226,210.78,226.58,210.62,226.74Z" style="fill:#263238"></path><path d="M181.87,233a2.64,2.64,0,0,1-2.53,2.69,2.53,2.53,0,0,1-2.74-2.37,2.65,2.65,0,0,1,2.53-2.68A2.52,2.52,0,0,1,181.87,233Z" style="fill:#263238"></path><path d="M182.68,227.46c-.33.34-2.34-1.12-5.18-1.1s-4.92,1.47-5.23,1.12c-.15-.15.17-.78,1.08-1.44a7.18,7.18,0,0,1,4.18-1.32,6.93,6.93,0,0,1,4.13,1.3C182.53,226.68,182.84,227.3,182.68,227.46Z" style="fill:#263238"></path><path d="M193.14,248.47c0-.16,1.75-.48,4.61-.86.73-.08,1.41-.23,1.53-.73a3.68,3.68,0,0,0-.5-2.15l-2.18-5.51c-3-7.85-5.24-14.31-4.92-14.43s3,6.15,6.07,14c.73,1.94,1.43,3.78,2.09,5.55a4.2,4.2,0,0,1,.4,2.84,1.8,1.8,0,0,1-1.19,1.07,4.51,4.51,0,0,1-1.23.18C194.94,248.61,193.15,248.63,193.14,248.47Z" style="fill:#263238"></path><path d="M195.33,282.1a52.4,52.4,0,0,1-27.64-7.17s6.79,14.1,27.4,12Z" style="fill:#aa6550"></path><path d="M193.47,254.88a7.17,7.17,0,0,0-5.9-3.13,4.35,4.35,0,0,0-3.66,6.81,4.46,4.46,0,0,0,4.72,1.7,10.36,10.36,0,0,0,4.23-2.66,3.26,3.26,0,0,0,.91-1.1,1.51,1.51,0,0,0-.14-1.48" style="fill:#aa6550"></path><path d="M184.79,250.49c.46,0,.48,3.06,3.14,5.23s5.94,1.81,6,2.24c0,.2-.73.61-2.12.66a7.73,7.73,0,0,1-5-1.7,6.72,6.72,0,0,1-2.44-4.39C184.24,251.25,184.57,250.48,184.79,250.49Z" style="fill:#263238"></path><path d="M183.92,220.9c-.27.77-3.11.42-6.45.85s-6,1.35-6.47.66c-.2-.33.27-1.06,1.35-1.81a11.27,11.27,0,0,1,9.84-1.16C183.42,219.93,184,220.53,183.92,220.9Z" style="fill:#263238"></path><path d="M209.52,218.52c-.5.65-2.46,0-4.82,0s-4.34.47-4.81-.21c-.2-.32.11-1,1-1.59a7,7,0,0,1,7.75.19C209.46,217.54,209.74,218.2,209.52,218.52Z" style="fill:#263238"></path><path d="M147.84,230.4a3.43,3.43,0,0,0,1,3.94,2.37,2.37,0,0,0,3.37-.93c.9,1.21,3,0,2.69-1.6,1.11.63,2.57-.87,2.22-2.27,1.29.5,2.06-1.59,2.74-3,.38-.77.89-1.42,1.33-2.13a14.4,14.4,0,0,0,2.14-7.77c1.69-1.91,2.12-4.87,2.47-7.61.21-1.71.43-3.42.64-5.13l1-1.18a2.78,2.78,0,0,0,1.84,2.66,5.87,5.87,0,0,0,3.11,0l3.07-.58,1.9.56c-.56,1.59,0,3.4.55,5a4.87,4.87,0,0,0,1.76,2.79,1.45,1.45,0,0,0,2-1.54,1.61,1.61,0,0,0,2.49-.38,5.34,5.34,0,0,0,.7-3.16,13.48,13.48,0,0,0-2.43-7.45l5.31,5a2.47,2.47,0,0,0,1.3.8A1.4,1.4,0,0,0,190.5,208a3.62,3.62,0,0,0,2-1.33c1.3-1.35,2.68-3.66,1.53-5.2a1.15,1.15,0,0,0,.52-1.69l6,4.62c-.6-.35-1.27.59-1.14,1.37a3.19,3.19,0,0,0,1.25,1.79,4.72,4.72,0,0,0-.71,2.87c-1.08-1-2.72.82-2.38,2.38a3.4,3.4,0,0,0,3.18,2.51,2.38,2.38,0,0,0,2.71-1.75c1.32.29,2.61-1.53,2.14-3,1,.64,1.81-1.08,1.87-2.38a19,19,0,0,0-1-7c0,.34.34.62.58.44a.51.51,0,0,0-.1-.8c1.13,2.77,2.26,5.55,3.38,8.32a19.16,19.16,0,0,1,1.84,6.93c0,1,.12,2.35,1,2.44a1.2,1.2,0,0,0,.65-.17,12.38,12.38,0,0,0,5.48-6.31,9.43,9.43,0,0,0,.84-2.92c.2-2.13-.68-4.18-.82-6.32a21.74,21.74,0,0,0-.18-2.81,8.37,8.37,0,0,0-2.17-3.69c-3.24-3.78-6.67-7.69-11-9.23-2.66-.93-5.51-.92-8.18-1.83a47.05,47.05,0,0,1-4.79-2.22c-6.58-3.11-13.86-3.53-20.92-2.94a33.27,33.27,0,0,0-11.61,2.69c-4,1.89-7.58,5-10.91,8.33-5,4.95-9.67,10.48-12.85,17.19-2.44,5.16-4,11.18-3.1,17s4.45,11.3,9.33,12.52l1.92-2.2" style="fill:#263238"></path><path d="M153.47,234.35c-.28-.13-11.47-3.69-11.37,7.81s11.63,9,11.64,8.7S153.47,234.35,153.47,234.35Z" style="fill:#b78876"></path><path d="M150.19,246.53c-.05,0-.2.14-.53.3a2,2,0,0,1-1.5,0c-1.22-.44-2.26-2.36-2.33-4.43a6.6,6.6,0,0,1,.53-2.87,2.31,2.31,0,0,1,1.5-1.55,1,1,0,0,1,1.18.53c.16.32.09.55.15.57s.25-.19.15-.67a1.31,1.31,0,0,0-.46-.71,1.53,1.53,0,0,0-1.11-.28,2.79,2.79,0,0,0-2.08,1.8,6.67,6.67,0,0,0-.66,3.21c.09,2.31,1.3,4.47,3,4.94a2.17,2.17,0,0,0,1.83-.32C150.18,246.81,150.23,246.55,150.19,246.53Z" style="fill:#aa6550"></path><path d="M191.08,230.83a25.74,25.74,0,0,0-.53-3.3,13.5,13.5,0,0,0-5-7.38,13.2,13.2,0,0,0-5.66-2.49,13.47,13.47,0,0,0-7,.6,13.23,13.23,0,0,0-6.21,4.67,13.32,13.32,0,0,0,0,15.81,12.46,12.46,0,0,0,2.82,2.84,12.69,12.69,0,0,0,3.39,1.83,13.48,13.48,0,0,0,7,.6,13.32,13.32,0,0,0,5.66-2.49,13.57,13.57,0,0,0,5-7.38,25.42,25.42,0,0,0,.53-3.31,6.39,6.39,0,0,1,0,.87,5.3,5.3,0,0,1-.08,1.06,8.52,8.52,0,0,1-.25,1.42,13.54,13.54,0,0,1-4.94,7.63,13.77,13.77,0,0,1-13.09,2.05,13.91,13.91,0,0,1-6.45-4.82,13.78,13.78,0,0,1,0-16.41,13.73,13.73,0,0,1,6.45-4.82,13.9,13.9,0,0,1,7.28-.58,13.76,13.76,0,0,1,5.8,2.62,13.6,13.6,0,0,1,4.95,7.63,8.81,8.81,0,0,1,.25,1.43,5.2,5.2,0,0,1,.08,1.05A6.39,6.39,0,0,1,191.08,230.83Z" style="fill:#455a64"></path><path d="M223.52,230.83a25.74,25.74,0,0,0-.53-3.3,13.5,13.5,0,0,0-5-7.38,13.2,13.2,0,0,0-5.66-2.49,13.49,13.49,0,0,0-7,.6,13.23,13.23,0,0,0-6.21,4.67,13.32,13.32,0,0,0,0,15.81,12.46,12.46,0,0,0,2.82,2.84,12.69,12.69,0,0,0,3.39,1.83,13.49,13.49,0,0,0,7,.6,13.32,13.32,0,0,0,5.66-2.49,13.57,13.57,0,0,0,5-7.38,25.42,25.42,0,0,0,.53-3.31,7.22,7.22,0,0,1,0,.87,6.29,6.29,0,0,1-.09,1.06,8.52,8.52,0,0,1-.25,1.42,13.54,13.54,0,0,1-4.94,7.63,13.77,13.77,0,0,1-13.09,2.05,13.91,13.91,0,0,1-6.45-4.82,13.78,13.78,0,0,1,0-16.41,13.73,13.73,0,0,1,6.45-4.82,13.74,13.74,0,0,1,13.09,2,13.57,13.57,0,0,1,4.94,7.63,8.81,8.81,0,0,1,.25,1.43,6.18,6.18,0,0,1,.09,1.05A7.22,7.22,0,0,1,223.52,230.83Z" style="fill:#455a64"></path><path d="M196.85,227.63c-.06.15-1.37-.39-3.08-.44s-3.05.38-3.1.23a6,6,0,0,1,6.18.21Z" style="fill:#455a64"></path><path d="M163.72,232.18a22.42,22.42,0,0,1-5.74,1.46,22.2,22.2,0,0,1-5.91.42c0-.15,2.61-.41,5.82-.93S163.68,232,163.72,232.18Z" style="fill:#455a64"></path><path d="M189.64,228.69a7.48,7.48,0,0,1-.14,2.57,16.15,16.15,0,0,1-2.26,5.79,13.93,13.93,0,0,1-4.34,4.46,3.27,3.27,0,0,1-2.51.56,6.3,6.3,0,0,0,2.32-.87,15.37,15.37,0,0,0,4.09-4.43,18.21,18.21,0,0,0,2.34-5.58C189.5,229.66,189.55,228.68,189.64,228.69Z" style="fill:#fff"></path><path d="M219.31,237.44a18.13,18.13,0,0,1,1.1-2.15,10.3,10.3,0,0,0,.9-2.39,8.21,8.21,0,0,0,.06-3.1,16.52,16.52,0,0,0-1.63-5.48c-.7-1.29-1.4-1.92-1.33-2s.22.1.53.39a7.11,7.11,0,0,1,1.12,1.4,14.45,14.45,0,0,1,1.82,5.6,8.15,8.15,0,0,1-.1,3.28,9.42,9.42,0,0,1-1.05,2.46A8,8,0,0,1,219.31,237.44Z" style="fill:#fff"></path><path d="M145.36,250.47s-.3.14-.76.48a3.72,3.72,0,0,0-1.31,1.92,3.26,3.26,0,0,0,.69,3.21,3.89,3.89,0,0,0,3.83,1.12,4.14,4.14,0,0,0,2.07-6.3,5.11,5.11,0,0,0-1.75-1.6,5.76,5.76,0,0,1-.8-.41,2.06,2.06,0,0,1,.89.23,4.74,4.74,0,0,1,2,1.57,4.41,4.41,0,0,1,.81,3.64,4.59,4.59,0,0,1-3,3.37,4.34,4.34,0,0,1-4.34-1.3,3.58,3.58,0,0,1-.87-1.87,3.77,3.77,0,0,1,.19-1.77,3.66,3.66,0,0,1,1.55-2C145,250.47,145.35,250.44,145.36,250.47Z" style="fill:#455a64"></path><path d="M193.05,197.85a2.8,2.8,0,0,0,.77-1.48,2.05,2.05,0,0,0-.51-1.73,2.19,2.19,0,0,0-2.2-.57l-.48.16.21-.46a2.29,2.29,0,0,0-.61-2.55,2.24,2.24,0,0,0-2.86.1L187,191a.9.9,0,0,0,.16-.29,1.27,1.27,0,0,0-.18-1.08,1.51,1.51,0,0,0-.94-.6,2.36,2.36,0,0,0-1.15.06,3.2,3.2,0,0,1-1.29.28c-.55-.1-.79-.51-1.07-.69a4.66,4.66,0,0,0-.89-.55,4.9,4.9,0,0,0-1.85-.42,5,5,0,0,0-2.68.64c-.57.33-.84.61-.87.57a2.33,2.33,0,0,1,.76-.74,4.89,4.89,0,0,1,2.8-.84,5.19,5.19,0,0,1,2,.39,4.86,4.86,0,0,1,1,.59c.33.24.58.55.86.58a3.34,3.34,0,0,0,1.09-.29,2.82,2.82,0,0,1,1.39-.07,2,2,0,0,1,1.26.8,1.79,1.79,0,0,1,.25,1.53,1.48,1.48,0,0,1-.26.46L187,191a2.64,2.64,0,0,1,4.23,3l-.27-.3a2.55,2.55,0,0,1,2.6.74,2.36,2.36,0,0,1-.13,3.2C193.21,197.8,193.06,197.87,193.05,197.85Z" style="fill:#455a64"></path><path d="M205.89,201.18a3.48,3.48,0,0,0,1-1.44,2.56,2.56,0,0,0-.12-1.94,2.67,2.67,0,0,0-2-1.47l-.37-.05.25-.28a3.21,3.21,0,0,0,.88-2.81,1.7,1.7,0,0,0-1-1.16,1.34,1.34,0,0,0-1.52.2l-1.47,1.55,1.07-1.85a2.67,2.67,0,0,0,.14-2.25,2.46,2.46,0,0,0-1.77-1.52,2.59,2.59,0,0,0-1.72.17l-.6.3.24-.63c.35-.88-.55-1.91-1.44-2a4.35,4.35,0,0,0-2.72.68l-.5.27.16-.54a1.9,1.9,0,0,0-.62-1.83,3.47,3.47,0,0,0-1.77-.79,8.92,8.92,0,0,0-3.3.08,13.78,13.78,0,0,0-2.77,1,2.51,2.51,0,0,1,.64-.45,8.76,8.76,0,0,1,5.5-1,3.83,3.83,0,0,1,2,.85,2.33,2.33,0,0,1,.78,2.28l-.34-.27a4.78,4.78,0,0,1,3-.76,2.38,2.38,0,0,1,1.51.9,1.83,1.83,0,0,1,.33,1.82l-.35-.33a3.13,3.13,0,0,1,2.07-.22,3,3,0,0,1,2.14,1.85,3.17,3.17,0,0,1-.2,2.68l-.39-.3a1.84,1.84,0,0,1,2.07-.3,2.2,2.2,0,0,1,1.29,1.49,3.58,3.58,0,0,1-1,3.19l-.11-.33a3,3,0,0,1,2.25,1.73,2.79,2.79,0,0,1,0,2.16,2.75,2.75,0,0,1-.78,1.11C206.05,201.13,205.9,201.2,205.89,201.18Z" style="fill:#455a64"></path><path d="M233.58,203.58a1.91,1.91,0,0,0-.67-1.41,2.51,2.51,0,0,0-1.71-.62,7.5,7.5,0,0,0-2.46.58l-.28.11,0-.31a2.23,2.23,0,0,0-1.82-2.16,6.39,6.39,0,0,0-3.65.58l-1.61.6,1.38-1a1.84,1.84,0,0,0-.14-2.63,4.15,4.15,0,0,0-3.22-.77l-.15,0-1,.09.85-.57a2,2,0,0,0-.22-3.1,3,3,0,0,0-3.31.32l-1.05.83.7-1.15a4.43,4.43,0,0,0,0-4.52,4.16,4.16,0,0,0-3-1.95,4.82,4.82,0,0,0-2.43.31c-.53.23-.79.43-.81.4s.05-.07.17-.17a3.28,3.28,0,0,1,.58-.37,4.64,4.64,0,0,1,2.53-.46,4.44,4.44,0,0,1,3.35,2,4.86,4.86,0,0,1,.08,5l-.35-.32a3.44,3.44,0,0,1,3.88-.37,2.5,2.5,0,0,1,1.11,1.88,2.21,2.21,0,0,1-.88,2.09l-.17-.48h.16a4.59,4.59,0,0,1,3.61.91,2.66,2.66,0,0,1,.78,1.7,1.93,1.93,0,0,1-.7,1.69l-.23-.43a6.79,6.79,0,0,1,3.94-.55,2.61,2.61,0,0,1,2.07,2.64l-.25-.2a7.24,7.24,0,0,1,2.59-.52,2.66,2.66,0,0,1,1.84.76,1.88,1.88,0,0,1,.58,1.13A.74.74,0,0,1,233.58,203.58Z" style="fill:#455a64"></path><path d="M219.07,177.22a1.49,1.49,0,0,1-.68.25,8.89,8.89,0,0,1-2,.1,5.85,5.85,0,0,0-2.89.44,1.84,1.84,0,0,0-1,1.25,1.35,1.35,0,0,0,.53,1.52l-.35.25c-.11-.66-.93-1.08-1.67-1.52a8.6,8.6,0,0,0-2.43-1,3.16,3.16,0,0,0-2.46.38,2.09,2.09,0,0,0-1.07,1.91l.08.64-.48-.43a5.77,5.77,0,0,0-3.38-1.39,6.44,6.44,0,0,0-2.9.42,8.05,8.05,0,0,0-2.22,1.42s.12-.23.44-.57a5.66,5.66,0,0,1,1.66-1.13,6.59,6.59,0,0,1,3-.55,6.09,6.09,0,0,1,3.68,1.44l-.4.21a2.56,2.56,0,0,1,1.27-2.4,3.64,3.64,0,0,1,2.85-.46,9,9,0,0,1,2.57,1.11,10.82,10.82,0,0,1,1.13.73,1.88,1.88,0,0,1,.77,1.17l.07.49-.43-.24a1.8,1.8,0,0,1-.74-2.05,2.28,2.28,0,0,1,1.27-1.52,6,6,0,0,1,3.09-.37,11.43,11.43,0,0,0,2,0C218.82,177.27,219.06,177.19,219.07,177.22Z" style="fill:#455a64"></path><path d="M193.39,167.27a5.27,5.27,0,0,0-1.36.19,3.24,3.24,0,0,0-1.3.82,2.83,2.83,0,0,0-.83,1.74l0,.28-.27-.09a1.7,1.7,0,0,0-1.89,1.07,5.13,5.13,0,0,0-.1,2.85l.16,1-.64-.83-.1-.13a2.18,2.18,0,0,0-1.78-.74,2.42,2.42,0,0,0-1.69.74,3.9,3.9,0,0,0-1,3.06,7,7,0,0,0,.58,2.24,3.35,3.35,0,0,1,.31.81,2.53,2.53,0,0,1-.5-.73,6.45,6.45,0,0,1-.76-2.29,4.21,4.21,0,0,1,1.07-3.43,2.89,2.89,0,0,1,4.22,0l.13.17-.48.18a5.54,5.54,0,0,1,.17-3.15,2.14,2.14,0,0,1,2.48-1.27l-.29.19a3.21,3.21,0,0,1,1-2,3.48,3.48,0,0,1,1.48-.81,2.94,2.94,0,0,1,1.07-.06C193.27,167.2,193.39,167.25,193.39,167.27Z" style="fill:#455a64"></path><path d="M170.73,183s-.26,0-.68-.15a4.37,4.37,0,0,1-1.56-1.11,4.61,4.61,0,0,1-1.19-2.6,2.31,2.31,0,0,0-.34-1.41c-.29-.37-.92-.6-1.31-1.2a2.6,2.6,0,0,1,.66-3.5l0,.38a8.27,8.27,0,0,1-2.21-3.08,3.13,3.13,0,0,1-.36-1.41,13.45,13.45,0,0,1,.62,1.29,9,9,0,0,0,2.26,2.84l.25.2-.27.18a2.15,2.15,0,0,0-.5,2.82c.26.44.83.64,1.27,1.15a2.64,2.64,0,0,1,.43,1.7,4.38,4.38,0,0,0,1,2.4A6.6,6.6,0,0,0,170.73,183Z" style="fill:#455a64"></path><path d="M164.06,187.56a1,1,0,0,1-.43.06,5.6,5.6,0,0,1-1.23-.11,6.84,6.84,0,0,1-3.83-2.17h.33a4.55,4.55,0,0,1-5,1.38,2.74,2.74,0,0,1-1.65-1.29,6,6,0,0,1-.21-.75,1,1,0,0,0-.32-.48,3.45,3.45,0,0,0-1.2-.53,4.09,4.09,0,0,1-1.34-.55,1.46,1.46,0,0,1-.73-1.27l.33.22a4.57,4.57,0,0,1-3.17.08,4.87,4.87,0,0,1-2.08-1.31,4.15,4.15,0,0,1-.86-1.33,1.28,1.28,0,0,1-.12-.55,6.17,6.17,0,0,0,1.18,1.68,4.85,4.85,0,0,0,2,1.13,4.24,4.24,0,0,0,2.86-.13l.35-.15,0,.38a1,1,0,0,0,.54.85,3.71,3.71,0,0,0,1.2.46,3.52,3.52,0,0,1,1.39.63,1.52,1.52,0,0,1,.49.72c.08.27.1.51.18.69a2.41,2.41,0,0,0,1.35,1,4.23,4.23,0,0,0,1.72.22,4.07,4.07,0,0,0,2.75-1.39l.17-.21.17.2a7,7,0,0,0,3.55,2.22C163.45,187.53,164.06,187.5,164.06,187.56Z" style="fill:#455a64"></path><path d="M123.09,203.51s0-.06-.06-.18a2.48,2.48,0,0,1-.09-.54,5.43,5.43,0,0,1,.25-2.06,12.21,12.21,0,0,1,1.39-2.91,11.36,11.36,0,0,1,1.16-1.65,3,3,0,0,1,.9-.69,1.36,1.36,0,0,1,1.27,0l-.32.21a3.45,3.45,0,0,1,5.63-3l-.42.2a2.38,2.38,0,0,1,1-1.94,2.29,2.29,0,0,1,2.22-.27,2.35,2.35,0,0,1,1,.77l-.47.18a1.51,1.51,0,0,1,.54-1.22,2,2,0,0,1,1.18-.49,4.6,4.6,0,0,1,2.22.57l-.32.1A3.7,3.7,0,0,1,142.4,189a5.08,5.08,0,0,1,2.54,0,13,13,0,0,1,3.91,1.95l-.27.23a.93.93,0,0,1,.1-.9,1.67,1.67,0,0,1,.65-.49,2.6,2.6,0,0,1,1.38-.21,7.7,7.7,0,0,1,2.07.63,6.66,6.66,0,0,1,1.17.69,1.47,1.47,0,0,1,.35.31c0,.05-.54-.37-1.61-.81a7.41,7.41,0,0,0-2-.52,2.39,2.39,0,0,0-1.21.22c-.4.17-.73.55-.54.93l.28.57-.56-.33a13,13,0,0,0-3.81-1.83,4.8,4.8,0,0,0-2.32,0,3.22,3.22,0,0,0-1.94,1.37l-.12.19-.2-.09a4.21,4.21,0,0,0-2-.52c-.62,0-1.3.56-1.24,1.16l.08.91-.55-.74a2,2,0,0,0-.79-.6,1.78,1.78,0,0,0-1.72.21,1.85,1.85,0,0,0-.76,1.51v.56l-.43-.36a3,3,0,0,0-4.86,2.57l0,.43-.36-.22c-.56-.33-1.23.13-1.67.59a10.35,10.35,0,0,0-1.14,1.56,13.07,13.07,0,0,0-1.46,2.8A6.74,6.74,0,0,0,123.09,203.51Z" style="fill:#455a64"></path><path d="M126,218.72a2.49,2.49,0,0,1-.26-.33,10,10,0,0,1-.61-1,3.83,3.83,0,0,1-.41-1.9,2.93,2.93,0,0,1,.39-1.19,2,2,0,0,1,1.14-.87l-.1.28a2.43,2.43,0,0,1,2.59-3.72l-.24.37a1.94,1.94,0,0,1,.07-2.31,2.87,2.87,0,0,1,2.22-1c.43,0,.83.05,1.16,0a1,1,0,0,0,.72-.62,4.2,4.2,0,0,1,.67-1.12,2.21,2.21,0,0,1,1.22-.67,13,13,0,0,1,2.77-.07,3,3,0,0,0,2.24-.65,11.14,11.14,0,0,0,.71-1,2.66,2.66,0,0,1,1.05-.81,2.76,2.76,0,0,1,2.43.13l-.3.32a2.07,2.07,0,0,1,.28-2.39,2.91,2.91,0,0,1,1.94-1,9.27,9.27,0,0,1,3.4.42,10.56,10.56,0,0,1,2,.82,2.41,2.41,0,0,1,.66.41,25.52,25.52,0,0,0-2.76-1,9.48,9.48,0,0,0-3.28-.31,2.55,2.55,0,0,0-1.67.86,1.62,1.62,0,0,0-.22,1.87l.55.82-.86-.5a2.31,2.31,0,0,0-2-.08,2.11,2.11,0,0,0-.84.67,12.5,12.5,0,0,1-.75,1,2.69,2.69,0,0,1-1.23.69,7.14,7.14,0,0,1-1.37.13,13,13,0,0,0-2.65.05,1.72,1.72,0,0,0-1,.53,3.85,3.85,0,0,0-.6,1,1.5,1.5,0,0,1-1.08.88,10,10,0,0,1-1.23,0,2.42,2.42,0,0,0-1.85.82,1.51,1.51,0,0,0-.1,1.74l.41.53-.65-.17a2.06,2.06,0,0,0-2.21.91,2.09,2.09,0,0,0,0,2.15l.14.22-.25.06a2,2,0,0,0-1.33,1.74,3.53,3.53,0,0,0,.31,1.79C125.71,218.2,126,218.69,126,218.72Z" style="fill:#455a64"></path><path d="M126.86,250.33a1.32,1.32,0,0,1-.5-.17,3.48,3.48,0,0,1-1.19-.93,3.69,3.69,0,0,1-.87-2.2,4,4,0,0,1,1.06-2.9l0,.28a7.3,7.3,0,0,1-1.35-2.59,2.87,2.87,0,0,1,.12-1.66,2.13,2.13,0,0,1,1.23-1.28l0,.45a3,3,0,0,1-1.3-2.71,3.38,3.38,0,0,1,.54-1.69,2.82,2.82,0,0,1,1.34-1.07c.5-.22.73-.45.74-1a4.21,4.21,0,0,1,.35-1.52,5.2,5.2,0,0,1,1.94-2.07c.7-.5,1.34-1,1.95-1.4a8.91,8.91,0,0,1,3.17-1.49,4,4,0,0,1,1-.07c.22,0,.33,0,.33.05s-.46,0-1.24.22a9.5,9.5,0,0,0-3,1.59l-1.9,1.45a4.8,4.8,0,0,0-1.76,1.92,3.57,3.57,0,0,0-.29,1.37,1.45,1.45,0,0,1-.29.85,2.06,2.06,0,0,1-.73.52,2.51,2.51,0,0,0-1.58,2.33,2.54,2.54,0,0,0,1,2.25l.45.28-.5.18a2.08,2.08,0,0,0-1.05,2.37,7.08,7.08,0,0,0,1.24,2.43l.1.15-.13.12a3.65,3.65,0,0,0-1,2.59,3.5,3.5,0,0,0,.72,2A5.19,5.19,0,0,0,126.86,250.33Z" style="fill:#455a64"></path><path d="M143.11,236.82a2.12,2.12,0,0,1-.71-.15,6.88,6.88,0,0,1-3.89-3.38,2.71,2.71,0,0,1-.35-2,1.33,1.33,0,0,1,.79-.89,1.12,1.12,0,0,1,1.27.21l-.39.24a3.51,3.51,0,0,1-.36-2,1.73,1.73,0,0,1,.62-1,1.42,1.42,0,0,1,1.19-.17,2.17,2.17,0,0,0,.9.13c.19-.06.23-.3.21-.69a3.13,3.13,0,0,1,.88-2.2,3.43,3.43,0,0,1,3.53-1l-.34.31a3,3,0,0,1,.54-2.87,1.82,1.82,0,0,1,1.41-.44,1.34,1.34,0,0,1,1.16.85l-.44.09a7,7,0,0,1,.88-3.79,7.39,7.39,0,0,1,1.94-2.28,6.47,6.47,0,0,1,1.68-.94,1.92,1.92,0,0,1,.66-.17,10,10,0,0,0-2.17,1.32,7.31,7.31,0,0,0-1.78,2.25,6.74,6.74,0,0,0-.76,3.58l.12,1.88-.56-1.79c-.2-.62-1.28-.72-1.8-.2a2.48,2.48,0,0,0-.38,2.38l.12.46-.45-.15a2.89,2.89,0,0,0-3,.88,2.65,2.65,0,0,0-.75,1.83,2,2,0,0,1,0,.62.84.84,0,0,1-.5.56,2.32,2.32,0,0,1-1.19-.11.85.85,0,0,0-.79.08,1.17,1.17,0,0,0-.43.68,3,3,0,0,0,.31,1.72l.48,1.27-.87-1c-.35-.41-1.2,0-1.31.49a2.43,2.43,0,0,0,.29,1.7,6.83,6.83,0,0,0,1.89,2.38A10.44,10.44,0,0,0,143.11,236.82Z" style="fill:#455a64"></path><path d="M169.14,204.79a3.84,3.84,0,0,1-1.54-.61,4.41,4.41,0,0,1-1.4-1.22,2.86,2.86,0,0,1-.5-2.25,1.84,1.84,0,0,1,.21-.54l.11.35a2.49,2.49,0,0,1-1.28-1.71,2.29,2.29,0,0,1,.33-1.69c.57-.83,1.24-.91,1.24-.86s-.53.28-.93,1a1.94,1.94,0,0,0-.18,1.41,2,2,0,0,0,1.05,1.35l.23.12-.12.24a1.84,1.84,0,0,0-.16.41,2.54,2.54,0,0,0,.4,1.87,4.72,4.72,0,0,0,1.2,1.17A8.88,8.88,0,0,1,169.14,204.79Z" style="fill:#455a64"></path><path d="M181.22,199.2a3.12,3.12,0,0,0,.36-1.9,2.16,2.16,0,0,0-1.22-1.63,2.32,2.32,0,0,0-2.48.39l-.33.31-.08-.45a4.23,4.23,0,0,0-.59-1.53,2,2,0,0,0-1.3-.92c-.83-.12-1.76.65-1.53,1.34l-.49.1a3.94,3.94,0,0,0-1.43-2.59,3.82,3.82,0,0,0-2.22-.85,5.89,5.89,0,0,0-2.18.39s.15-.17.51-.35a3.93,3.93,0,0,1,1.68-.36,4,4,0,0,1,2.48.83,4.35,4.35,0,0,1,1.66,2.87l-.49.1a1.45,1.45,0,0,1,.51-1.51,2.07,2.07,0,0,1,1.56-.49,2.48,2.48,0,0,1,1.67,1.16,4.67,4.67,0,0,1,.64,1.73l-.41-.14a2.74,2.74,0,0,1,3-.4,2.43,2.43,0,0,1,1.34,2,2.46,2.46,0,0,1-.3,1.52C181.39,199.1,181.23,199.21,181.22,199.2Z" style="fill:#455a64"></path><path d="M232.1,377.19l15.16-6.26a203.94,203.94,0,0,0-9.08-37.34c-5.45-15.06-14.39-21.83-17.2-23.65l0-.18L216.41,307,196.94,294.5c3.43,15.56-24.43,31.53-48.12-1.89l-39.16,15.84,10.24,110.9-9.71,49.06,98-.29v.95l20.85-.2-4.46-21.77c1.94-20.94,8.17-46.36,7.45-63.16C232.12,381.83,232.14,379.56,232.1,377.19Z" style="fill:#218B21"></path><path d="M227.71,420.8A4.8,4.8,0,0,0,228,420l.57-2.29c.25-1,.54-2.21.82-3.64s.65-3,.94-4.85.65-3.78.92-5.92.55-4.42.81-6.83c.43-4.82.73-10.14.73-15.73S232.4,369.83,232,365c-.27-2.41-.5-4.7-.83-6.83s-.62-4.11-1-5.91-.66-3.42-1-4.85-.57-2.64-.83-3.63-.43-1.72-.58-2.29a4.8,4.8,0,0,0-.24-.79,5.78,5.78,0,0,0,.14.82l.48,2.3c.23,1,.49,2.22.75,3.65s.61,3,.88,4.85.62,3.78.88,5.91.53,4.42.78,6.82c.42,4.81.72,10.11.75,15.69s-.29,10.88-.69,15.69c-.25,2.4-.45,4.69-.76,6.82s-.56,4.11-.86,5.91-.6,3.43-.86,4.86-.51,2.65-.73,3.65-.36,1.73-.47,2.3A5.78,5.78,0,0,0,227.71,420.8Z" style="fill:#263238"></path><path d="M228,420a1.57,1.57,0,0,1-.06.5c-.07.39-.15.86-.25,1.43-.25,1.23-.57,3-.95,5.23a106.66,106.66,0,0,0-1.6,17.42,81.64,81.64,0,0,0,.58,9.61,77.57,77.57,0,0,0,1.42,7.74c.24,1.1.54,2.07.76,2.93s.45,1.59.64,2.19.3,1,.41,1.39a1.7,1.7,0,0,1,.11.49s-.09-.15-.21-.46l-.5-1.35c-.22-.6-.48-1.32-.73-2.18s-.58-1.82-.83-2.92a67.51,67.51,0,0,1-1.54-7.77,74.33,74.33,0,0,1-.63-9.67,97,97,0,0,1,1.75-17.48c.43-2.21.81-4,1.12-5.21.14-.57.25-1,.35-1.41A1.89,1.89,0,0,1,228,420Z" style="fill:#263238"></path><path d="M70.64,386.2l20.09-57.48S96,311.78,112,307.6l11.38,57.49-5.28,31.45Z" style="fill:#218B21"></path><path d="M127.26,350a1.85,1.85,0,0,1,0,.49c0,.37-.08.83-.14,1.37-.13,1.2-.36,2.92-.69,5-.66,4.25-1.85,10.07-3.29,16.45s-2.74,12.18-3.61,16.38c-.42,2-.76,3.72-1,5l-.3,1.35a1.54,1.54,0,0,1-.14.47,1.81,1.81,0,0,1,0-.49c.05-.37.12-.82.2-1.36.18-1.19.48-2.9.86-5,.78-4.23,2-10,3.46-16.42s2.68-12.18,3.43-16.4c.39-2.11.67-3.82.86-5,.09-.55.17-1,.23-1.37A1.6,1.6,0,0,1,127.26,350Z" style="fill:#263238"></path><path d="M201.22,298a4.83,4.83,0,0,1,0,.76c0,.25,0,.56-.08.92s-.13.79-.21,1.25-.26,1-.42,1.53a17.31,17.31,0,0,1-.73,1.75,15.28,15.28,0,0,1-2.59,3.8,26.74,26.74,0,0,1-10,6.48,28.53,28.53,0,0,1-14.44,1.67A34.7,34.7,0,0,1,159,311.21a49.77,49.77,0,0,1-9.15-7.66,76.82,76.82,0,0,1-5.24-6.09c-.58-.75-1-1.34-1.3-1.75a5.33,5.33,0,0,1-.43-.63,3.45,3.45,0,0,1,.51.57l1.38,1.68c1.21,1.46,3,3.56,5.35,6a50.62,50.62,0,0,0,9.13,7.5,34.71,34.71,0,0,0,13.53,4.83A28.25,28.25,0,0,0,187,314a26.62,26.62,0,0,0,9.88-6.28,15.41,15.41,0,0,0,2.6-3.68,15,15,0,0,0,.75-1.7c.18-.54.33-1,.46-1.5s.18-.86.26-1.22.09-.67.13-.91A3.36,3.36,0,0,1,201.22,298Z" style="fill:#fafafa"></path><g style="opacity:0.30000000000000004"><path d="M117.56,427.37c5.94-7,6.51-17,6.79-26.23.36-11.66.11-25.12.47-36.78-2.16,10.34-5.42,26.2-7,32.18,0,0,.78,6.09.82,8.48,0,2.18-.15,4.56.06,6.73.52,5.6,1.4,11.79-1.84,16.4"></path></g><path d="M229.51,352.57a.85.85,0,0,1-.25.11l-.76.24-2.91.9c-1.27.4-2.82.86-4.65,1.33s-3.88,1.08-6.2,1.59-4.83,1.14-7.57,1.65-5.67,1.05-8.77,1.57c-6.2.94-13.05,1.73-20.28,2.15s-14.13.37-20.4.12c-3.13-.17-6.11-.31-8.88-.59s-5.36-.53-7.71-.83-4.48-.63-6.34-.9-3.46-.57-4.76-.83l-3-.59-.78-.17-.26-.07.27,0,.79.12,3,.49c1.3.23,2.9.5,4.77.74s4,.6,6.33.83,4.93.56,7.7.76,5.75.38,8.87.54c6.25.22,13.14.22,20.35-.16s14-1.2,20.24-2.11c3.09-.5,6-1,8.75-1.51s5.27-1.07,7.58-1.59,4.38-1.06,6.21-1.51,3.39-.88,4.66-1.24l2.94-.81.77-.2Z" style="fill:#fafafa"></path><path d="M240.38,340.15a40.43,40.43,0,0,1-5.34,3.6,40.79,40.79,0,0,1-5.61,3.16,78.73,78.73,0,0,1,10.95-6.76Z" style="fill:#fafafa"></path><path d="M126.21,355.52a10,10,0,0,1-1.68-.09c-1.07-.09-2.62-.26-4.53-.52a126.61,126.61,0,0,1-29-7.63c-1.79-.71-3.22-1.32-4.2-1.77a9.58,9.58,0,0,1-1.5-.74,12.24,12.24,0,0,1,1.58.55c1,.4,2.45.95,4.25,1.62,3.6,1.33,8.64,3,14.3,4.52s10.89,2.47,14.68,3.08c1.9.31,3.43.54,4.5.69A9.65,9.65,0,0,1,126.21,355.52Z" style="fill:#fafafa"></path><path d="M154.68,434.17l15.24.32s22.84-8.25,27.54-7.47c4.23.72,19.71,11,22.75,13a1.89,1.89,0,0,1,.73.94h0a3.32,3.32,0,0,1-1.84,4.22l-.32.13.13.46a5.41,5.41,0,0,1,.24,1.85,2.23,2.23,0,0,1-4.15,1l.58,1a2.58,2.58,0,0,1,.33,1.39l-.06.94a2.51,2.51,0,0,1-1.75,2.27h0a2.54,2.54,0,0,1-2.66-.69c-2-2.16-6.2-6.49-9.07-7a66.91,66.91,0,0,0-9.38-.47,3.19,3.19,0,0,0-3,2h0c1.71.12,13.58,6.31,17.78,8.53a4.48,4.48,0,0,1,2.44,3.38c.15,1.31-.51,2.69-3.11,2.08-5.58-1.3-15.63-5.92-15.63-5.92s-5.18-1.48-8.53.89c-4.72,3.33-6.89,4.55-10.94,3.21a34.51,34.51,0,0,1-7-3.28l-14.65.86S142.74,444.64,154.68,434.17Z" style="fill:#b78876"></path><path d="M190,438.35a41.29,41.29,0,0,1,4.29-.6,22.17,22.17,0,0,1,18.46,7.88c1.73,2.05,2.46,3.56,2.54,3.51a5.11,5.11,0,0,0-.51-1.06,19.27,19.27,0,0,0-1.79-2.64,21.45,21.45,0,0,0-18.72-8,19.58,19.58,0,0,0-3.16.53A4.82,4.82,0,0,0,190,438.35Z" style="fill:#aa6550"></path><path d="M192.38,432.8a18.43,18.43,0,0,1,4.46-.78A19.47,19.47,0,0,1,207.23,435a42.3,42.3,0,0,1,8.38,7.08l2.29,2.44a5.82,5.82,0,0,0,.88.87,7.23,7.23,0,0,0-.75-1c-.51-.61-1.25-1.48-2.2-2.53a38.56,38.56,0,0,0-8.37-7.25,19,19,0,0,0-10.63-2.87,12.44,12.44,0,0,0-3.31.6,9,9,0,0,0-.86.33C192.47,432.73,192.37,432.79,192.38,432.8Z" style="fill:#aa6550"></path><path d="M76.47,387.47c0-.1-7.93,35.63-9,41.91-1.21,7.35-3.21,25.21,13.16,28.69s84.34-1,84.34-1l4.91-22.56-62.27-8.84,6.8-29.9Z" style="fill:#b78876"></path></g><g id="freepik--Screens--inject-6"><rect x="263.53" y="225.11" width="190.67" height="118.08" style="fill:#fafafa"></rect><path d="M454.2,343.19s0-.73,0-2.13,0-3.48,0-6.2c0-5.43,0-13.42,0-23.67,0-20.48-.06-50-.11-86.08l.21.2-190.65.06h0l.26-.26c0,41.86,0,81.77,0,118.08l-.24-.24,137.25.12,39.32.06,10.47,0,2.7,0h0l-2.67,0-10.43,0-39.26.06-137.41.12h-.24v-.24c0-36.31,0-76.22,0-118.08v-.26h.28l190.65.05h.2v.21c0,36.16-.08,65.7-.11,86.21,0,10.22,0,18.2-.05,23.62,0,2.7,0,4.76,0,6.16S454.2,343.19,454.2,343.19Z" style="fill:#263238"></path><path d="M454.1,236.63c0,.15-42.6.26-95.14.26s-95.14-.11-95.14-.26,42.59-.26,95.14-.26S454.1,236.49,454.1,236.63Z" style="fill:#263238"></path><path d="M273.67,231.42a1.57,1.57,0,1,1-1.57-1.57A1.56,1.56,0,0,1,273.67,231.42Z" style="fill:#263238"></path><path d="M279.32,231.42a1.56,1.56,0,1,1-1.56-1.57A1.56,1.56,0,0,1,279.32,231.42Z" style="fill:#263238"></path><circle cx="283.41" cy="231.42" r="1.56" style="fill:#263238"></circle><path d="M284.33,257.76l-4.53,1.74,4.53,1.75v1.06l-5.72-2.26V259l5.72-2.25Z" style="fill:#263238"></path><path d="M289,253.23h1.11l-4.21,12h-1.11Z" style="fill:#263238"></path><path d="M296.25,259v1.1l-5.72,2.26v-1.06l4.54-1.75-4.54-1.74V256.7Z" style="fill:#263238"></path><path d="M297.69,263.16a.85.85,0,0,1,.87-.86.83.83,0,0,1,.84.86.85.85,0,0,1-.84.88A.87.87,0,0,1,297.69,263.16Z" style="fill:#263238"></path><path d="M300.59,263.16a.84.84,0,0,1,.87-.86.83.83,0,0,1,.84.86.85.85,0,0,1-.84.88A.86.86,0,0,1,300.59,263.16Z" style="fill:#263238"></path><path d="M303.49,263.16a.84.84,0,0,1,.86-.86.83.83,0,0,1,.84.86.85.85,0,0,1-.84.88A.86.86,0,0,1,303.49,263.16Z" style="fill:#263238"></path><path d="M404.73,274.62c0,.14-28.19.26-63,.26s-62.95-.12-62.95-.26,28.18-.27,62.95-.27S404.73,274.47,404.73,274.62Z" style="fill:#218B21"></path><path d="M425.29,275a70.52,70.52,0,0,1-12.1,0,70.52,70.52,0,0,1,12.1,0Z" style="fill:#263238"></path><path d="M443,275a84.15,84.15,0,0,1-13.22,0A84.15,84.15,0,0,1,443,275Z" style="fill:#263238"></path><path d="M359,285.22c0,.15-17.92.26-40,.26s-40-.11-40-.26,17.91-.26,40-.26S359,285.08,359,285.22Z" style="fill:#218B21"></path><path d="M358.42,324.8c0,.15-17.91.26-40,.26s-40-.11-40-.26,17.91-.26,40-.26S358.42,324.66,358.42,324.8Z" style="fill:#218B21"></path><path d="M388.07,285.22c0,.15-4.88.26-10.89.26s-10.89-.11-10.89-.26,4.88-.26,10.89-.26S388.07,285.08,388.07,285.22Z" style="fill:#263238"></path><path d="M387.84,324.8c0,.15-4.87.26-10.89.26s-10.88-.11-10.88-.26,4.87-.26,10.88-.26S387.84,324.66,387.84,324.8Z" style="fill:#263238"></path><path d="M284.23,290.62a14.15,14.15,0,0,1-5.4,0,14.15,14.15,0,0,1,5.4,0Z" style="fill:#218B21"></path><path d="M302.84,290.73A32.65,32.65,0,0,1,297,291a32.58,32.58,0,0,1-5.86-.26,66.28,66.28,0,0,1,11.73,0Z" style="fill:#263238"></path><path d="M314.75,290.73a48.69,48.69,0,0,1-10.05,0,48.69,48.69,0,0,1,10.05,0Z" style="fill:#263238"></path><path d="M329.82,290.73a50.54,50.54,0,0,1-10.24,0,50.54,50.54,0,0,1,10.24,0Z" style="fill:#263238"></path><path d="M343,290.73a41.71,41.71,0,0,1-9.3,0,41.71,41.71,0,0,1,9.3,0Z" style="fill:#263238"></path><path d="M386.77,290.73c0,.15-9.17.26-20.47.26s-20.48-.11-20.48-.26,9.17-.26,20.48-.26S386.77,290.59,386.77,290.73Z" style="fill:#263238"></path><path d="M283.48,297.51a10.53,10.53,0,0,1-4.65,0,10.15,10.15,0,0,1,4.65,0Z" style="fill:#218B21"></path><path d="M283.67,304.58a11.39,11.39,0,0,1-4.84,0,11.39,11.39,0,0,1,4.84,0Z" style="fill:#218B21"></path><path d="M283.67,312.58a11.39,11.39,0,0,1-4.84,0,11.39,11.39,0,0,1,4.84,0Z" style="fill:#218B21"></path><path d="M327.77,312.21c0,.14-8.08.26-18,.26s-18.05-.12-18.05-.26,8.08-.26,18.05-.26S327.77,312.06,327.77,312.21Z" style="fill:#263238"></path><path d="M324.61,304.58c0,.14-7.71.26-17.21.26s-17.22-.12-17.22-.26,7.71-.26,17.22-.26S324.61,304.43,324.61,304.58Z" style="fill:#263238"></path><path d="M407.79,297.13c0,.15-26.24.26-58.61.26s-58.63-.11-58.63-.26,26.24-.26,58.63-.26S407.79,297,407.79,297.13Z" style="fill:#263238"></path><rect x="286.48" y="65.51" width="80.34" height="138" style="fill:#fafafa"></rect><path d="M366.82,203.51s0-.23,0-.68,0-1.1,0-2c0-1.74,0-4.29,0-7.6,0-6.63,0-16.3-.06-28.5,0-24.38-.07-58.84-.12-99.26l.24.24-80.33,0h0l.26-.26c0,52.65,0,100.94-.05,138l-.21-.2,58.6.11,16.08.05,4.21,0,1.45,0-1.41,0-4.17,0-16,0-58.73.11h-.2v-.2c0-37.06,0-85.35-.06-138v-.26h.27l80.33,0h.24v.24c-.05,40.48-.09,75-.12,99.42,0,12.18-.05,21.83-.06,28.45,0,3.29,0,5.82,0,7.55,0,.84,0,1.49,0,1.93S366.82,203.51,366.82,203.51Z" style="fill:#263238"></path><circle cx="292.15" cy="71.59" r="1.63" style="fill:#263238"></circle><circle cx="298.04" cy="71.59" r="1.63" style="fill:#263238"></circle><path d="M305.56,71.59A1.63,1.63,0,1,1,303.93,70,1.63,1.63,0,0,1,305.56,71.59Z" style="fill:#263238"></path><path d="M344.74,109.22c0,.15-10.19.26-22.75.26s-22.74-.11-22.74-.26S309.43,109,322,109,344.74,109.08,344.74,109.22Z" style="fill:#218B21"></path><path d="M354.22,120.27c0,.15-12.39.26-27.68.26s-27.68-.11-27.68-.26,12.39-.26,27.68-.26S354.22,120.13,354.22,120.27Z" style="fill:#218B21"></path><path d="M356.48,161.5c0,.15-13.22.26-29.52.26s-29.51-.11-29.51-.26,13.21-.26,29.51-.26S356.48,161.36,356.48,161.5Z" style="fill:#218B21"></path><path d="M303.51,125.89a15.31,15.31,0,0,1-5.62,0,15.31,15.31,0,0,1,5.62,0Z" style="fill:#218B21"></path><path d="M322.9,126a71.81,71.81,0,0,1-12.21,0,71.81,71.81,0,0,1,12.21,0Z" style="fill:#218B21"></path><path d="M335.3,126a52.73,52.73,0,0,1-10.46,0,52.73,52.73,0,0,1,10.46,0Z" style="fill:#218B21"></path><path d="M302.74,133.07a11.44,11.44,0,0,1-4.85,0,11.44,11.44,0,0,1,4.85,0Z" style="fill:#218B21"></path><path d="M302.93,140.43a12.34,12.34,0,0,1-5,0,12.34,12.34,0,0,1,5,0Z" style="fill:#218B21"></path><path d="M302.93,148.77a12.34,12.34,0,0,1-5,0,12.34,12.34,0,0,1,5,0Z" style="fill:#218B21"></path><path d="M348.87,148.38c0,.14-8.42.26-18.8.26s-18.8-.12-18.8-.26,8.41-.26,18.8-.26S348.87,148.24,348.87,148.38Z" style="fill:#218B21"></path><path d="M345.58,140.43c0,.15-8,.26-17.93.26s-17.93-.11-17.93-.26,8-.26,17.93-.26S345.58,140.29,345.58,140.43Z" style="fill:#218B21"></path><path d="M306.6,172.51a12.34,12.34,0,0,1-5,0,12.34,12.34,0,0,1,5,0Z" style="fill:#218B21"></path><path d="M306.6,180.84a12.34,12.34,0,0,1-5,0,12.34,12.34,0,0,1,5,0Z" style="fill:#218B21"></path><path d="M352.54,180.46c0,.14-8.42.26-18.8.26s-18.8-.12-18.8-.26,8.41-.26,18.8-.26S352.54,180.31,352.54,180.46Z" style="fill:#218B21"></path><path d="M349.25,172.51c0,.14-8,.26-17.93.26s-17.93-.12-17.93-.26,8-.26,17.93-.26S349.25,172.37,349.25,172.51Z" style="fill:#218B21"></path><path d="M358.91,132.68c0,.14-10.93.26-24.4.26s-24.41-.12-24.41-.26,10.93-.26,24.41-.26S358.91,132.54,358.91,132.68Z" style="fill:#218B21"></path><path d="M366.06,78c0,.15-17.64.26-39.39.26s-39.4-.11-39.4-.26,17.64-.26,39.4-.26S366.06,77.82,366.06,78Z" style="fill:#263238"></path><path d="M315.86,102.56a67.56,67.56,0,0,1-8.32.26,67.7,67.7,0,0,1-8.32-.26,67.7,67.7,0,0,1,8.32-.26A67.56,67.56,0,0,1,315.86,102.56Z" style="fill:#218B21"></path><path d="M306.44,87.49a29.68,29.68,0,0,1-7.84,0,29.68,29.68,0,0,1,7.84,0Z" style="fill:#218B21"></path></g><g id="freepik--Device--inject-6"><path d="M349.6,469H210.15l18-97.86a7.31,7.31,0,0,1,7.19-6h125.3a7.31,7.31,0,0,1,7.18,8.69Z" style="fill:#455a64"></path><path d="M210.15,469H157.26l.22-.16a28.51,28.51,0,0,1,16.31-5.7L211.61,462Z" style="fill:#455a64"></path><path d="M243.65,365.23s-.39-.07-1.13-.08a7,7,0,0,0-3.1.77,9.45,9.45,0,0,0-3.71,3.38,18,18,0,0,0-2.28,6.33c-.46,2.47-.86,5.22-1.35,8.15s-1,6.07-1.66,9.35c-1.21,6.58-2.65,13.79-4.22,21.35-3.15,15.11-6.06,28.78-8,38.71-1,5-1.7,9-2.2,11.77-.25,1.36-.44,2.44-.58,3.21l-.17.83a1.49,1.49,0,0,1-.07.28,1.27,1.27,0,0,1,0-.29c0-.22.07-.5.11-.84l.49-3.22c.44-2.8,1.13-6.83,2-11.81,1.81-9.95,4.67-23.64,7.82-38.75,1.57-7.55,3-14.76,4.26-21.33.63-3.28,1.18-6.41,1.7-9.33s.93-5.66,1.42-8.16a18,18,0,0,1,2.39-6.41,9.66,9.66,0,0,1,3.87-3.4,6.8,6.8,0,0,1,3.19-.69A4.25,4.25,0,0,1,243.65,365.23Z" style="fill:#263238"></path><path d="M302.54,414.82a6.75,6.75,0,1,1-6.74-6.74A6.74,6.74,0,0,1,302.54,414.82Z" style="fill:#f5f5f5"></path></g><g id="freepik--Desk--inject-6"><path d="M477.32,469c0,.15-101.78.26-227.31.26S22.68,469.1,22.68,469s101.76-.26,227.33-.26S477.32,468.81,477.32,469Z" style="fill:#263238"></path></g></svg>