<svg width="149" height="135" viewBox="0 0 149 135" fill="none" xmlns="http://www.w3.org/2000/svg">
<path d="M14.0758 96.0261L0.253632 69.7305L14.0758 43.4348H25.2349L11.4128 69.7305L25.2349 96.0261H14.0758ZM122.99 43.4348H134.213L148.035 69.7305L134.213 96.0261H122.99L136.876 69.7305L122.99 43.4348Z" fill="#09A424"/>
<path d="M44.8512 61.4574C46.3543 59.0106 48.2332 57.0957 50.4878 55.7128C52.7424 54.2766 55.2474 53.5585 58.0031 53.5585V68H54.4709C51.2643 68 48.8594 68.7446 47.2562 70.234C45.6528 71.6702 44.8512 74.2234 44.8512 77.8936V98.5585H32V54.0372H44.8512V61.4574ZM76.997 61.4574C78.5001 59.0106 80.3789 57.0957 82.6335 55.7128C84.8881 54.2766 87.3932 53.5585 90.1489 53.5585V68H86.6167C83.4101 68 81.0052 68.7446 79.4019 70.234C77.7985 71.6702 76.997 74.2234 76.997 77.8936V98.5585H64.1458V54.0372H76.997V61.4574ZM125 23L104.709 113H94.4125L114.704 23H125Z" fill="#0FD90F"/>
</svg>
